<svg version="1.2" baseProfile="tiny-ps" xmlns="http://www.w3.org/2000/svg" viewBox="0 0 878 650" width="878" height="650">
	<title>971-ai</title>
	<defs>
		<linearGradient id="grd1" gradientUnits="userSpaceOnUse"  x1="812.118" y1="515.719" x2="877.341" y2="515.719">
			<stop offset="0" stop-color="#c9d6ff"  />
			<stop offset="1" stop-color="#e2e2e2"  />
		</linearGradient>
		<linearGradient id="grd2" gradientUnits="userSpaceOnUse"  x1="723.118" y1="545.706" x2="772" y2="545.706">
			<stop offset="0" stop-color="#c9d6ff"  />
			<stop offset="1" stop-color="#e2e2e2"  />
		</linearGradient>
		<linearGradient id="grd3" gradientUnits="userSpaceOnUse"  x1="722.815" y1="413.849" x2="832.372" y2="413.849">
			<stop offset="0" stop-color="#c9d6ff"  />
			<stop offset="1" stop-color="#e2e2e2"  />
		</linearGradient>
		<linearGradient id="grd4" gradientUnits="userSpaceOnUse"  x1="0.37" y1="450.553" x2="109.927" y2="450.553">
			<stop offset="0" stop-color="#c9d6ff"  />
			<stop offset="1" stop-color="#e2e2e2"  />
		</linearGradient>
		<linearGradient id="grd5" gradientUnits="userSpaceOnUse"  x1="130" y1="509.138" x2="209.63" y2="509.138">
			<stop offset="0" stop-color="#c9d6ff"  />
			<stop offset="1" stop-color="#e2e2e2"  />
		</linearGradient>
		<linearGradient id="grd6" gradientUnits="userSpaceOnUse"  x1="127.919" y1="304.588" x2="712.636" y2="304.588">
			<stop offset="0" stop-color="#c9d6ff"  />
			<stop offset="1" stop-color="#e2e2e2"  />
		</linearGradient>
		<radialGradient id="grd7" gradientUnits="userSpaceOnUse"  cx="451.567" cy="46.482" r="443.94">
			<stop offset="0" stop-color="#c9d6ff"  />
			<stop offset="0.5" stop-color="#a6a6a6"  />
			<stop offset="0.8" stop-color="#e2e2e2"  />
		</radialGradient>
		<radialGradient id="grd8" gradientUnits="userSpaceOnUse"  cx="177.746" cy="405.041" r="488.345">
			<stop offset="0" stop-color="#c9d6ff"  />
			<stop offset="0.7" stop-color="#b1b1b1"  />
			<stop offset="0.857" stop-color="#e2e2e2"  />
		</radialGradient>
		<radialGradient id="grd9" gradientUnits="userSpaceOnUse"  cx="223.748" cy="307.512" r="435.524">
			<stop offset="0" stop-color="#c9d6ff"  />
			<stop offset="1" stop-color="#e2e2e2"  />
		</radialGradient>
		<radialGradient id="grd10" gradientUnits="userSpaceOnUse"  cx="333.11" cy="140.243" r="444.029">
			<stop offset="0" stop-color="#c9d6ff"  />
			<stop offset="0.36" stop-color="#ced2dd"  />
			<stop offset="0.641" stop-color="#e2e2e2"  />
			<stop offset="1" stop-color="#e2e2e2"  />
		</radialGradient>
		<linearGradient id="grd11" gradientUnits="userSpaceOnUse"  x1="381.903" y1="60.897" x2="737.732" y2="60.897">
			<stop offset="0" stop-color="#605a78"  />
			<stop offset="1" stop-color="#6507fa"  />
		</linearGradient>
		<radialGradient id="grd12" gradientUnits="userSpaceOnUse"  cx="170.978" cy="45.584" r="691.564">
			<stop offset="0" stop-color="#e39a65"  />
			<stop offset="0.474" stop-color="#a92ffb"  />
			<stop offset="0.726" stop-color="#6507fa"  />
			<stop offset="1" stop-color="#3919bb"  />
		</radialGradient>
		<linearGradient id="grd13" gradientUnits="userSpaceOnUse"  x1="136.819" y1="257.602" x2="290.37" y2="257.602">
			<stop offset="0" stop-color="#c9d6ff"  />
			<stop offset="1" stop-color="#e2e2e2"  />
		</linearGradient>
		<radialGradient id="grd14" gradientUnits="userSpaceOnUse"  cx="150.432" cy="179.725" r="330.699">
			<stop offset="0" stop-color="#d0d0d0"  />
			<stop offset="0.15" stop-color="#c2b8c8"  />
			<stop offset="0.41" stop-color="#b3afc2"  />
			<stop offset="0.93" stop-color="#b2b1b3"  />
		</radialGradient>
		<linearGradient id="grd15" gradientUnits="userSpaceOnUse"  x1="156.849" y1="96.101" x2="274.268" y2="96.101">
			<stop offset="0" stop-color="#9c9c9c"  />
			<stop offset="0.25" stop-color="#bab2bf"  />
			<stop offset="0.56" stop-color="#a8a7ad"  />
		</linearGradient>
		<linearGradient id="grd16" gradientUnits="userSpaceOnUse"  x1="171.702" y1="101.885" x2="259.482" y2="101.885">
			<stop offset="0" stop-color="#d3cde5"  />
			<stop offset="1" stop-color="#c1b6c9"  />
		</linearGradient>
		<linearGradient id="grd17" gradientUnits="userSpaceOnUse"  x1="169.416" y1="101.885" x2="257.195" y2="101.885">
			<stop offset="0" stop-color="#cccccc"  />
			<stop offset="1" stop-color="#b7b7b7"  />
		</linearGradient>
		<linearGradient id="grd18" gradientUnits="userSpaceOnUse"  x1="168.399" y1="101.859" x2="287.423" y2="101.859">
			<stop offset="0" stop-color="#a4a4a4"  />
			<stop offset="0.61" stop-color="#909090"  />
			<stop offset="1" stop-color="#989898"  />
		</linearGradient>
		<radialGradient id="grd19" gradientUnits="userSpaceOnUse"  cx="148.176" cy="108.365" r="196.782">
			<stop offset="0" stop-color="#dddddd"  />
			<stop offset="0.25" stop-color="#c5c5c5"  />
			<stop offset="0.74" stop-color="#c4c4c6"  />
		</radialGradient>
		<linearGradient id="grd20" gradientUnits="userSpaceOnUse"  x1="207.965" y1="154.936" x2="224.775" y2="154.936">
			<stop offset="0" stop-color="#131060"  />
			<stop offset="0.607" stop-color="#740df8"  />
			<stop offset="1" stop-color="#e8975b"  />
		</linearGradient>
		<linearGradient id="grd21" gradientUnits="userSpaceOnUse"  x1="472.624" y1="144.115" x2="504.715" y2="144.115">
			<stop offset="0" stop-color="#acb6e5"  />
			<stop offset="1" stop-color="#acb6e5"  />
		</linearGradient>
		<linearGradient id="grd22" gradientUnits="userSpaceOnUse"  x1="478.629" y1="159.296" x2="476.778" y2="159.453">
			<stop offset="0" stop-color="#7c84a6"  />
			<stop offset="0.99" stop-color="#7c84a6" stop-opacity="0" />
		</linearGradient>
		<linearGradient id="grd23" gradientUnits="userSpaceOnUse"  x1="482.72" y1="152.188" x2="483.094" y2="153.494">
			<stop offset="0" stop-color="#7c84a6"  />
			<stop offset="1" stop-color="#7c84a6" stop-opacity="0" />
		</linearGradient>
		<linearGradient id="grd24" gradientUnits="userSpaceOnUse"  x1="480.154" y1="150.141" x2="479.605" y2="147.353">
			<stop offset="0" stop-color="#7c84a6"  />
			<stop offset="1" stop-color="#7c84a6" stop-opacity="0" />
		</linearGradient>
		<linearGradient id="grd25" gradientUnits="userSpaceOnUse"  x1="499.668" y1="156.276" x2="498.018" y2="159.151">
			<stop offset="0" stop-color="#7c84a6"  />
			<stop offset="1" stop-color="#7c84a6" stop-opacity="0" />
		</linearGradient>
		<linearGradient id="grd26" gradientUnits="userSpaceOnUse"  x1="499.701" y1="153.529" x2="500.445" y2="151.283">
			<stop offset="0" stop-color="#7c84a6"  />
			<stop offset="1" stop-color="#7c84a6" stop-opacity="0" />
		</linearGradient>
	</defs>
	<style>
		tspan { white-space:pre }
		.shp0 { fill: url(#grd1) } 
		.shp1 { fill: url(#grd2) } 
		.shp2 { fill: url(#grd3) } 
		.shp3 { fill: url(#grd4) } 
		.shp4 { fill: url(#grd5) } 
		.shp5 { opacity: 0.6;fill: #020230 } 
		.shp6 { fill: url(#grd6) } 
		.shp7 { fill: url(#grd7) } 
		.shp8 { fill: url(#grd8) } 
		.shp9 { fill: url(#grd9) } 
		.shp10 { fill: #ffffff } 
		.shp11 { fill: #06033e } 
		.shp12 { fill: url(#grd10) } 
		.shp13 { fill: url(#grd11) } 
		.shp14 { opacity: 0.4;fill: #3b3a4d } 
		.shp15 { opacity: 0.4;fill: #2d2c4a } 
		.shp16 { opacity: 0.502;fill: #353461 } 
		.shp17 { fill: url(#grd12) } 
		.shp18 { fill: #454381 } 
		.shp19 { opacity: 0.4;fill: #06033e } 
		.shp20 { fill: #e8975b } 
		.shp21 { fill: #f8359e } 
		.shp22 { fill: url(#grd13) } 
		.shp23 { fill: url(#grd14) } 
		.shp24 { opacity: 0.4;fill: #86868a } 
		.shp25 { fill: url(#grd15) } 
		.shp26 { fill: url(#grd16) } 
		.shp27 { fill: url(#grd17) } 
		.shp28 { opacity: 0.4;fill: #545454 } 
		.shp29 { fill: url(#grd18) } 
		.shp30 { fill: url(#grd19) } 
		.shp31 { fill: #0c0a78 } 
		.shp32 { fill: url(#grd20) } 
		.shp33 { opacity: 0.502;fill: #e3e3e3 } 
		.shp34 { opacity: 0.502;fill: #ffffff } 
		.shp35 { fill: url(#grd21) } 
		.shp36 { fill: url(#grd22) } 
		.shp37 { fill: url(#grd23) } 
		.shp38 { fill: url(#grd24) } 
		.shp39 { fill: url(#grd25) } 
		.shp40 { fill: url(#grd26) } 
	</style>
	<g id="\321\353\356\351 1">
		<path id="&lt;Compound Path&gt;" fill-rule="evenodd" class="shp0" d="M844.73 558.01C842.32 558.01 839.91 557.39 837.77 556.15L814.29 542.6C812.93 541.81 812.12 540.4 812.12 538.83C812.12 537.26 812.93 535.85 814.29 535.07L837.77 521.51C842.06 519.04 847.4 519.03 851.69 521.51L875.16 535.07C876.53 535.85 877.34 537.26 877.34 538.83C877.34 540.4 876.53 541.81 875.16 542.6L851.69 556.15C849.55 557.39 847.14 558.01 844.73 558.01ZM844.73 523.38C842.96 523.38 841.2 523.83 839.63 524.74L816.15 538.29C815.88 538.45 815.84 538.7 815.84 538.83C815.84 538.97 815.88 539.22 816.15 539.37L839.63 552.93C839.63 552.93 839.63 552.93 839.63 552.93C842.77 554.74 846.68 554.74 849.83 552.93L873.31 539.37C873.58 539.22 873.62 538.97 873.62 538.83C873.62 538.7 873.58 538.45 873.31 538.29L849.83 524.74C848.26 523.83 846.49 523.38 844.73 523.38Z" />
		<path id="&lt;Compound Path&gt; copy" fill-rule="evenodd" class="shp1" d="M747.56 577.4C745.75 577.4 743.95 576.94 742.34 576.01L724.75 565.85C723.73 565.26 723.12 564.2 723.12 563.03C723.12 561.85 723.73 560.79 724.75 560.21L742.34 550.05C745.56 548.19 749.56 548.19 752.78 550.05L770.37 560.21C771.39 560.79 772 561.85 772 563.03C772 564.2 771.39 565.26 770.37 565.85L752.78 576.01C751.17 576.94 749.36 577.4 747.56 577.4ZM747.56 551.44C746.24 551.44 744.91 551.78 743.73 552.46L726.14 562.62C725.94 562.74 725.91 562.93 725.91 563.03C725.91 563.13 725.94 563.31 726.14 563.43L743.74 573.59C743.74 573.59 743.74 573.59 743.74 573.59C746.09 574.95 749.02 574.95 751.38 573.59L768.98 563.43C769.18 563.31 769.21 563.13 769.21 563.03C769.21 562.93 769.18 562.74 768.98 562.62L751.38 552.46C750.2 551.78 748.88 551.44 747.56 551.44Z" />
		<path id="&lt;Compound Path&gt;" fill-rule="evenodd" class="shp2" d="M777.59 481.11C773.68 481.11 769.77 480.1 766.28 478.09L725.89 454.76C723.96 453.65 722.82 451.67 722.82 449.45C722.82 447.23 723.96 445.24 725.89 444.13L766.28 420.81C773.25 416.78 781.93 416.78 788.9 420.81L829.3 444.13C831.22 445.24 832.37 447.23 832.37 449.44C832.37 451.66 831.23 453.65 829.3 454.76L788.91 478.09C785.42 480.1 781.5 481.11 777.59 481.11ZM768.14 474.86C773.98 478.23 781.21 478.23 787.05 474.86L827.44 451.54C828.53 450.91 828.65 449.87 828.65 449.45C828.65 449.03 828.53 447.98 827.44 447.35L787.04 424.03C781.21 420.67 773.97 420.67 768.14 424.03L727.75 447.35C726.66 447.98 726.54 449.03 726.54 449.45C726.54 449.87 726.66 450.91 727.75 451.54L768.14 474.86Z" />
		<path id="&lt;Compound Path&gt;" fill-rule="evenodd" class="shp3" d="M55.15 517.81C51.24 517.81 47.33 516.81 43.84 514.79L3.44 491.47C1.52 490.36 0.37 488.37 0.37 486.15C0.37 483.93 1.52 481.94 3.44 480.83L43.84 457.51C50.81 453.48 59.48 453.48 66.46 457.51L106.85 480.84C108.78 481.95 109.93 483.93 109.93 486.15C109.93 488.37 108.78 490.36 106.85 491.47L66.46 514.79C62.97 516.81 59.06 517.81 55.15 517.81ZM55.15 458.21C51.88 458.21 48.61 459.05 45.7 460.73L5.3 484.06C4.21 484.69 4.09 485.73 4.09 486.15C4.09 486.57 4.21 487.62 5.3 488.25L45.7 511.57C51.53 514.93 58.77 514.93 64.6 511.57L105 488.25C106.09 487.62 106.2 486.57 106.2 486.15C106.2 485.73 106.09 484.69 105 484.06L64.6 460.73C61.68 459.05 58.41 458.21 55.15 458.21Z" />
		<path id="&lt;Compound Path&gt; copy 2" fill-rule="evenodd" class="shp4" d="M169.82 558.03C166.97 558.03 164.13 557.29 161.59 555.83L132.23 538.88C130.83 538.07 130 536.62 130 535.01C130 533.4 130.83 531.95 132.23 531.15L161.59 514.2C166.66 511.27 172.97 511.27 178.04 514.2L207.4 531.15C208.8 531.96 209.63 533.4 209.63 535.01C209.63 536.63 208.8 538.07 207.4 538.88L178.04 555.83C175.5 557.29 172.66 558.03 169.82 558.03ZM169.81 514.7C167.44 514.7 165.06 515.32 162.94 516.54L133.58 533.49C132.79 533.95 132.71 534.71 132.71 535.01C132.71 535.32 132.79 536.08 133.58 536.54L162.95 553.49C167.19 555.93 172.45 555.93 176.69 553.49L206.05 536.54C206.84 536.08 206.92 535.32 206.92 535.01C206.92 534.71 206.84 533.95 206.05 533.49L176.68 516.54C174.56 515.32 172.19 514.7 169.81 514.7Z" />
		<g id="&lt;Group&gt;">
			<path id="&lt;Path&gt;" class="shp5" d="M464.24 619.56L175.38 452.79C171.17 450.36 171.7 446.11 176.56 443.3L361.95 336.27C366.81 333.46 374.17 333.15 378.38 335.59L667.24 502.36C671.45 504.79 670.92 509.04 666.06 511.84L480.67 618.88C475.81 621.69 468.45 621.99 464.24 619.56Z" />
			<path id="&lt;Compound Path&gt;" fill-rule="evenodd" class="shp6" d="M470.86 649.67C467.48 649.67 464.24 648.97 461.77 647.54L461.77 647.54L132.09 457.2C129.4 455.65 127.92 453.41 127.92 450.89C127.92 448 129.93 445.18 133.44 443.15L358.17 311.49C364.33 307.93 373.39 307.59 378.79 310.71L708.46 501.05C711.15 502.6 712.64 504.84 712.64 507.36C712.64 510.25 710.62 513.07 707.11 515.09L482.39 646.76C479.05 648.69 474.86 649.67 470.86 649.67ZM369.74 312.31C366.36 312.31 362.77 313.13 360.04 314.71L135.31 446.37C133.01 447.7 131.64 449.39 131.64 450.89C131.64 452.34 132.9 453.37 133.95 453.98L463.63 644.32C463.63 644.32 463.63 644.32 463.63 644.32C467.84 646.75 475.58 646.39 480.51 643.54L705.24 511.88C707.55 510.55 708.91 508.86 708.91 507.36C708.91 505.91 707.66 504.88 706.6 504.27L376.93 313.93C375.05 312.85 372.46 312.31 369.74 312.31Z" />
			<path id="&lt;Path&gt;" class="shp7" d="M749.25 236.98L684.19 448.24C683.36 450.93 681.64 452.79 679.56 453.62L679.57 453.63L674.48 455.41L675.19 453.86C674.49 453.68 673.77 453.4 673.08 453L385.35 286.88C380.83 284.27 378.47 277.9 380.08 272.66L445.14 61.4C445.54 60.1 446.15 59 446.9 58.11L445.03 57.67L450.35 55.81C450.36 55.81 450.37 55.8 450.38 55.8L450.38 55.8L450.38 55.8C452.21 55.27 454.28 55.5 456.25 56.64L743.98 222.76C748.5 225.37 750.86 231.74 749.25 236.98Z" />
			<path id="&lt;Path&gt;" class="shp8" d="M670 459.05L668.25 467.41L668.24 467.39C667.91 469 666.61 470.63 664.33 471.94L480.25 578.22C475.42 581.01 468.12 581.31 463.94 578.9L177.11 413.3C175.49 412.36 174.59 411.15 174.36 409.86L174.35 409.87L172.63 401.28L178.75 403.61L362.37 297.6C367.2 294.81 374.5 294.51 378.68 296.93L662.88 461.01L662.78 460.88L670 459.05Z" />
			<path id="&lt;Path&gt;" class="shp9" d="M464.24 571.34L175.38 404.57C171.17 402.14 171.7 397.89 176.56 395.08L361.95 288.05C366.81 285.24 374.17 284.93 378.38 287.37L667.24 454.14C671.45 456.57 670.92 460.82 666.06 463.62L480.67 570.66C475.81 573.47 468.45 573.77 464.24 571.34Z" />
			<path id="&lt;Path&gt;" class="shp10" d="M669.87 457.14C670.54 459.3 669.27 461.77 666.06 463.62L480.67 570.66C475.81 573.47 468.45 573.77 464.24 571.34L175.38 404.57C173.01 403.2 172.2 401.26 172.75 399.32C173.1 400.44 173.94 401.49 175.38 402.32L464.24 569.09C468.45 571.52 475.81 571.22 480.67 568.41L666.06 461.37C668.19 460.15 669.43 458.64 669.87 457.14Z" />
			<g id="&lt;Group&gt;" style="opacity: 0.4">
				<path id="&lt;Path&gt;" class="shp11" d="M313.16 377.5L303.41 371.87C302.63 371.42 302.73 370.63 303.63 370.11L315.14 363.46C316.04 362.94 317.41 362.88 318.2 363.34L327.95 368.97C328.73 369.42 328.63 370.21 327.73 370.73L316.22 377.38C315.31 377.9 313.95 377.95 313.16 377.5Z" />
				<path id="&lt;Path&gt;" class="shp11" d="M328.22 386.2L318.47 380.57C317.69 380.11 317.79 379.33 318.69 378.8L330.2 372.16C331.11 371.64 332.47 371.58 333.26 372.03L343.01 377.66C343.79 378.11 343.69 378.9 342.79 379.42L331.28 386.07C330.37 386.59 329.01 386.65 328.22 386.2Z" />
				<path id="&lt;Path&gt;" class="shp11" d="M343.28 394.89L333.53 389.26C332.75 388.81 332.85 388.02 333.75 387.5L345.26 380.85C346.17 380.33 347.53 380.27 348.32 380.73L358.07 386.36C358.85 386.81 358.75 387.6 357.85 388.12L346.34 394.77C345.43 395.29 344.07 395.34 343.28 394.89Z" />
				<path id="&lt;Path&gt;" class="shp11" d="M364.11 387.71L354.36 382.08C353.58 381.63 353.68 380.84 354.58 380.32L364.24 374.74C365.15 374.22 366.51 374.16 367.3 374.61L377.05 380.24C377.83 380.69 377.74 381.48 376.83 382.01L367.17 387.59C366.26 388.11 364.9 388.16 364.11 387.71Z" />
				<path id="&lt;Path&gt;" class="shp11" d="M379.17 396.41L369.42 390.78C368.64 390.32 368.74 389.53 369.64 389.01L379.3 383.43C380.21 382.91 381.58 382.86 382.36 383.31L392.11 388.94C392.89 389.39 392.8 390.18 391.89 390.7L382.23 396.28C381.32 396.8 379.96 396.86 379.17 396.41Z" />
				<path id="&lt;Path&gt;" class="shp11" d="M394.23 405.1L384.48 399.47C383.7 399.02 383.8 398.23 384.7 397.71L394.36 392.13C395.27 391.61 396.64 391.55 397.42 392L407.17 397.63C407.95 398.08 407.86 398.87 406.95 399.4L397.29 404.98C396.38 405.5 395.02 405.55 394.23 405.1Z" />
				<path id="&lt;Path&gt;" class="shp11" d="M409.29 413.8L399.54 408.17C398.76 407.72 398.86 406.93 399.76 406.4L409.42 400.82C410.33 400.3 411.7 400.25 412.48 400.7L422.23 406.33C423.01 406.78 422.92 407.57 422.01 408.09L412.35 413.67C411.45 414.19 410.08 414.25 409.29 413.8Z" />
				<path id="&lt;Path&gt;" class="shp11" d="M424.36 422.49L414.6 416.86C413.82 416.41 413.92 415.62 414.82 415.1L424.49 409.52C425.39 409 426.76 408.94 427.54 409.39L437.29 415.02C438.08 415.48 437.98 416.27 437.07 416.79L427.41 422.37C426.51 422.89 425.14 422.94 424.36 422.49Z" />
				<path id="&lt;Path&gt;" class="shp11" d="M439.42 431.19L429.66 425.56C428.88 425.11 428.98 424.32 429.88 423.79L439.55 418.21C440.45 417.69 441.82 417.64 442.6 418.09L452.35 423.72C453.14 424.17 453.04 424.96 452.13 425.48L442.47 431.06C441.57 431.58 440.2 431.64 439.42 431.19Z" />
				<path id="&lt;Path&gt;" class="shp11" d="M454.48 439.88L444.72 434.25C443.94 433.8 444.04 433.01 444.94 432.49L454.61 426.91C455.51 426.39 456.88 426.33 457.66 426.78L467.41 432.41C468.2 432.87 468.1 433.66 467.19 434.18L457.53 439.76C456.63 440.28 455.26 440.34 454.48 439.88Z" />
				<path id="&lt;Path&gt;" class="shp11" d="M469.54 448.58L459.78 442.95C459 442.5 459.1 441.71 460 441.18L469.67 435.61C470.57 435.08 471.94 435.03 472.72 435.48L482.47 441.11C483.26 441.56 483.16 442.35 482.25 442.87L472.59 448.45C471.69 448.97 470.32 449.03 469.54 448.58Z" />
				<path id="&lt;Path&gt;" class="shp11" d="M484.6 457.27L474.85 451.64C474.06 451.19 474.16 450.4 475.06 449.88L484.73 444.3C485.63 443.78 487 443.72 487.78 444.17L497.53 449.8C498.32 450.26 498.22 451.05 497.32 451.57L487.65 457.15C486.75 457.67 485.38 457.73 484.6 457.27Z" />
				<path id="&lt;Path&gt;" class="shp11" d="M499.66 465.97L489.91 460.34C489.12 459.89 489.22 459.1 490.13 458.57L499.79 453C500.69 452.47 502.06 452.42 502.84 452.87L512.6 458.5C513.38 458.95 513.28 459.74 512.38 460.26L502.71 465.84C501.81 466.36 500.44 466.42 499.66 465.97Z" />
				<path id="&lt;Path&gt;" class="shp11" d="M386.3 383.6L376.55 377.96C375.77 377.51 375.87 376.72 376.77 376.2L386.43 370.62C387.34 370.1 388.71 370.04 389.49 370.5L399.24 376.13C400.02 376.58 399.93 377.37 399.02 377.89L389.36 383.47C388.45 383.99 387.09 384.05 386.3 383.6Z" />
				<path id="&lt;Path&gt;" class="shp11" d="M371.02 374.77L361.27 369.14C360.48 368.69 360.58 367.9 361.49 367.38L371.15 361.8C372.05 361.27 373.42 361.22 374.2 361.67L383.96 367.3C384.74 367.75 384.64 368.54 383.74 369.06L374.07 374.64C373.17 375.17 371.8 375.22 371.02 374.77Z" />
				<path id="&lt;Path&gt;" class="shp11" d="M355.71 365.93L334.7 353.8C333.92 353.35 334.02 352.56 334.92 352.04L344.59 346.46C345.49 345.94 346.86 345.88 347.64 346.33L368.65 358.46C369.43 358.91 369.33 359.7 368.43 360.23L358.76 365.8C357.86 366.33 356.49 366.38 355.71 365.93Z" />
				<path id="&lt;Path&gt;" class="shp11" d="M366.41 355.18L349.36 345.34C348.58 344.89 348.68 344.1 349.58 343.58L359.25 338C360.15 337.48 361.52 337.42 362.3 337.87L379.35 347.71C380.13 348.16 380.03 348.95 379.13 349.48L369.47 355.05C368.56 355.58 367.19 355.63 366.41 355.18Z" />
				<path id="&lt;Path&gt;" class="shp11" d="M401.36 392.29L391.61 386.66C390.83 386.21 390.93 385.42 391.83 384.9L401.49 379.32C402.4 378.8 403.77 378.74 404.55 379.19L414.3 384.82C415.08 385.27 414.99 386.06 414.08 386.58L404.42 392.16C403.52 392.69 402.15 392.74 401.36 392.29Z" />
				<path id="&lt;Path&gt;" class="shp11" d="M416.43 400.99L406.67 395.36C405.89 394.9 405.99 394.11 406.89 393.59L416.55 388.01C417.46 387.49 418.83 387.43 419.61 387.89L429.36 393.52C430.15 393.97 430.05 394.76 429.14 395.28L419.48 400.86C418.58 401.38 417.21 401.44 416.43 400.99Z" />
				<path id="&lt;Path&gt;" class="shp11" d="M431.49 409.68L421.73 404.05C420.95 403.6 421.05 402.81 421.95 402.29L431.62 396.71C432.52 396.19 433.89 396.13 434.67 396.58L444.42 402.21C445.21 402.66 445.11 403.45 444.2 403.98L434.54 409.55C433.64 410.08 432.27 410.13 431.49 409.68Z" />
				<path id="&lt;Path&gt;" class="shp11" d="M446.55 418.38L436.79 412.75C436.01 412.29 436.11 411.5 437.01 410.98L446.68 405.4C447.58 404.88 448.95 404.82 449.73 405.28L459.48 410.91C460.27 411.36 460.17 412.15 459.26 412.67L449.6 418.25C448.7 418.77 447.33 418.83 446.55 418.38Z" />
				<path id="&lt;Path&gt;" class="shp11" d="M461.61 427.07L451.85 421.44C451.07 420.99 451.17 420.2 452.07 419.68L461.74 414.1C462.64 413.58 464.01 413.52 464.79 413.97L474.54 419.6C475.33 420.05 475.23 420.84 474.32 421.37L464.66 426.94C463.76 427.47 462.39 427.52 461.61 427.07Z" />
				<path id="&lt;Path&gt;" class="shp11" d="M476.67 435.77L466.91 430.14C466.13 429.68 466.23 428.89 467.13 428.37L476.8 422.79C477.7 422.27 479.07 422.21 479.85 422.67L489.6 428.3C490.39 428.75 490.29 429.54 489.38 430.06L479.72 435.64C478.82 436.16 477.45 436.22 476.67 435.77Z" />
				<path id="&lt;Path&gt;" class="shp11" d="M491.73 444.46L481.98 438.83C481.19 438.38 481.29 437.59 482.19 437.07L491.86 431.49C492.76 430.97 494.13 430.91 494.91 431.36L504.66 436.99C505.45 437.44 505.35 438.23 504.45 438.76L494.78 444.33C493.88 444.86 492.51 444.91 491.73 444.46Z" />
				<path id="&lt;Path&gt;" class="shp11" d="M506.79 453.16L497.04 447.53C496.25 447.07 496.35 446.28 497.26 445.76L506.92 440.18C507.82 439.66 509.19 439.6 509.97 440.06L519.73 445.69C520.51 446.14 520.41 446.93 519.51 447.45L509.84 453.03C508.94 453.55 507.57 453.61 506.79 453.16Z" />
				<path id="&lt;Path&gt;" class="shp11" d="M521.85 461.85L512.1 456.22C511.31 455.77 511.41 454.98 512.32 454.46L521.98 448.88C522.88 448.36 524.25 448.3 525.03 448.75L534.79 454.38C535.57 454.83 535.47 455.62 534.57 456.15L524.9 461.73C524 462.25 522.63 462.3 521.85 461.85Z" />
				<path id="&lt;Path&gt;" class="shp11" d="M548.62 477.31L527.34 465.02C526.56 464.57 526.66 463.78 527.56 463.26L537.23 457.68C538.13 457.16 539.5 457.1 540.28 457.56L561.56 469.84C562.34 470.29 562.25 471.08 561.34 471.6L551.68 477.18C550.77 477.71 549.41 477.76 548.62 477.31Z" />
				<path id="&lt;Path&gt;" class="shp11" d="M577.94 460.38L559.98 450.01C559.2 449.56 559.3 448.77 560.2 448.25L569.87 442.67C570.77 442.15 572.14 442.09 572.92 442.54L590.88 452.91C591.66 453.36 591.57 454.15 590.66 454.68L581 460.26C580.09 460.78 578.73 460.83 577.94 460.38Z" />
				<path id="&lt;Path&gt;" class="shp11" d="M427.74 390.59L417.99 384.96C417.2 384.51 417.3 383.72 418.21 383.19L427.87 377.62C428.77 377.09 430.14 377.04 430.92 377.49L440.68 383.12C441.46 383.57 441.36 384.36 440.46 384.88L430.79 390.46C429.89 390.98 428.52 391.04 427.74 390.59Z" />
				<path id="&lt;Path&gt;" class="shp11" d="M412.3 381.68L402.55 376.05C401.77 375.59 401.87 374.81 402.77 374.28L412.43 368.7C413.34 368.18 414.71 368.13 415.49 368.58L425.24 374.21C426.02 374.66 425.93 375.45 425.02 375.97L415.36 381.55C414.45 382.07 413.09 382.13 412.3 381.68Z" />
				<path id="&lt;Path&gt;" class="shp11" d="M396.87 372.77L387.12 367.14C386.33 366.68 386.43 365.89 387.34 365.37L397 359.79C397.9 359.27 399.27 359.21 400.05 359.67L409.81 365.3C410.59 365.75 410.49 366.54 409.59 367.06L399.92 372.64C399.02 373.16 397.65 373.22 396.87 372.77Z" />
				<path id="&lt;Path&gt;" class="shp11" d="M381.43 363.85L371.68 358.22C370.9 357.77 371 356.98 371.9 356.46L381.56 350.88C382.47 350.36 383.84 350.3 384.62 350.75L394.37 356.39C395.15 356.84 395.06 357.63 394.15 358.15L384.49 363.73C383.58 364.25 382.22 364.31 381.43 363.85Z" />
				<path id="&lt;Path&gt;" class="shp11" d="M442.8 399.28L433.05 393.65C432.26 393.2 432.36 392.41 433.27 391.89L442.93 386.31C443.83 385.79 445.2 385.73 445.98 386.18L455.74 391.82C456.52 392.27 456.42 393.06 455.52 393.58L445.85 399.16C444.95 399.68 443.58 399.74 442.8 399.28Z" />
				<path id="&lt;Path&gt;" class="shp11" d="M457.86 407.98L448.11 402.35C447.32 401.9 447.42 401.11 448.33 400.59L457.99 395.01C458.89 394.48 460.26 394.43 461.04 394.88L470.8 400.51C471.58 400.96 471.48 401.75 470.58 402.27L460.91 407.85C460.01 408.38 458.64 408.43 457.86 407.98Z" />
				<path id="&lt;Path&gt;" class="shp11" d="M472.92 416.67L463.17 411.04C462.38 410.59 462.48 409.8 463.39 409.28L473.05 403.7C473.95 403.18 475.32 403.12 476.11 403.58L485.86 409.21C486.64 409.66 486.54 410.45 485.64 410.97L475.98 416.55C475.07 417.07 473.7 417.13 472.92 416.67Z" />
				<path id="&lt;Path&gt;" class="shp11" d="M487.98 425.37L478.23 419.74C477.45 419.29 477.54 418.5 478.45 417.98L488.11 412.4C489.01 411.87 490.38 411.82 491.17 412.27L500.92 417.9C501.7 418.35 501.6 419.14 500.7 419.66L491.04 425.24C490.13 425.77 488.76 425.82 487.98 425.37Z" />
				<path id="&lt;Path&gt;" class="shp11" d="M503.04 434.07L493.29 428.43C492.51 427.98 492.6 427.19 493.51 426.67L503.17 421.09C504.08 420.57 505.44 420.51 506.23 420.97L515.98 426.6C516.76 427.05 516.66 427.84 515.76 428.36L506.1 433.94C505.19 434.46 503.82 434.52 503.04 434.07Z" />
				<path id="&lt;Path&gt;" class="shp11" d="M518.1 442.76L508.35 437.13C507.57 436.68 507.66 435.89 508.57 435.37L518.23 429.79C519.14 429.27 520.5 429.21 521.29 429.66L531.04 435.29C531.82 435.74 531.72 436.53 530.82 437.05L521.16 442.63C520.25 443.16 518.88 443.21 518.1 442.76Z" />
				<path id="&lt;Path&gt;" class="shp11" d="M533.16 451.46L523.41 445.83C522.63 445.37 522.73 444.58 523.63 444.06L533.29 438.48C534.2 437.96 535.56 437.9 536.35 438.36L546.1 443.99C546.88 444.44 546.78 445.23 545.88 445.75L536.22 451.33C535.31 451.85 533.95 451.91 533.16 451.46Z" />
				<path id="&lt;Path&gt;" class="shp11" d="M548.22 460.15L538.47 454.52C537.69 454.07 537.79 453.28 538.69 452.76L548.35 447.18C549.26 446.66 550.62 446.6 551.41 447.05L561.16 452.68C561.94 453.13 561.85 453.92 560.94 454.45L551.28 460.02C550.37 460.55 549.01 460.6 548.22 460.15Z" />
				<path id="&lt;Path&gt;" class="shp11" d="M563.28 468.85L553.53 463.22C552.75 462.76 552.85 461.97 553.75 461.45L563.41 455.87C564.32 455.35 565.69 455.29 566.47 455.75L576.22 461.38C577 461.83 576.91 462.62 576 463.14L566.34 468.72C565.43 469.24 564.07 469.3 563.28 468.85Z" />
				<path id="&lt;Path&gt;" class="shp11" d="M419.81 369.08L410.06 363.45C409.27 363 409.37 362.21 410.28 361.69L419.94 356.11C420.84 355.59 422.21 355.53 422.99 355.98L432.75 361.61C433.53 362.07 433.43 362.85 432.53 363.38L422.86 368.96C421.96 369.48 420.59 369.53 419.81 369.08Z" />
				<path id="&lt;Path&gt;" class="shp11" d="M404.82 360.43L395.07 354.8C394.29 354.35 394.39 353.56 395.29 353.04L404.95 347.46C405.86 346.93 407.22 346.88 408.01 347.33L417.76 352.96C418.54 353.41 418.44 354.2 417.54 354.72L407.88 360.3C406.97 360.83 405.61 360.88 404.82 360.43Z" />
				<path id="&lt;Path&gt;" class="shp11" d="M389.84 351.78L380.08 346.15C379.3 345.7 379.4 344.91 380.3 344.38L389.97 338.81C390.87 338.28 392.24 338.23 393.02 338.68L402.77 344.31C403.56 344.76 403.46 345.55 402.56 346.07L392.89 351.65C391.99 352.17 390.62 352.23 389.84 351.78Z" />
				<path id="&lt;Path&gt;" class="shp11" d="M374.85 343.13L365.1 337.5C364.32 337.04 364.41 336.25 365.32 335.73L374.98 330.15C375.89 329.63 377.25 329.57 378.04 330.03L387.79 335.66C388.57 336.11 388.47 336.9 387.57 337.42L377.91 343C377 343.52 375.63 343.58 374.85 343.13Z" />
				<path id="&lt;Path&gt;" class="shp11" d="M390.26 334.23L380.51 328.6C379.73 328.15 379.82 327.36 380.73 326.84L383.92 324.99C384.83 324.47 386.19 324.41 386.98 324.86L396.73 330.49C397.51 330.95 397.41 331.74 396.51 332.26L393.32 334.1C392.41 334.62 391.04 334.68 390.26 334.23Z" />
				<path id="&lt;Path&gt;" class="shp11" d="M409.82 345.52L400.07 339.89C399.28 339.44 399.38 338.65 400.28 338.13L403.48 336.28C404.38 335.76 405.75 335.7 406.53 336.16L416.29 341.79C417.07 342.24 416.97 343.03 416.07 343.55L412.87 345.39C411.97 345.92 410.6 345.97 409.82 345.52Z" />
				<path id="&lt;Path&gt;" class="shp11" d="M424.74 354.14L414.99 348.51C414.21 348.05 414.3 347.26 415.21 346.74L418.4 344.9C419.31 344.38 420.67 344.32 421.46 344.77L431.21 350.4C431.99 350.85 431.89 351.64 430.99 352.17L427.8 354.01C426.89 354.53 425.52 354.59 424.74 354.14Z" />
				<path id="&lt;Path&gt;" class="shp11" d="M439.66 362.75L429.91 357.12C429.13 356.67 429.23 355.88 430.13 355.36L433.33 353.51C434.23 352.99 435.6 352.93 436.38 353.39L446.13 359.02C446.92 359.47 446.82 360.26 445.91 360.78L442.72 362.63C441.81 363.15 440.45 363.2 439.66 362.75Z" />
				<path id="&lt;Path&gt;" class="shp11" d="M454.59 371.37L444.83 365.74C444.05 365.29 444.15 364.5 445.05 363.97L448.25 362.13C449.15 361.61 450.52 361.55 451.3 362L461.06 367.63C461.84 368.09 461.74 368.88 460.84 369.4L457.64 371.24C456.74 371.76 455.37 371.82 454.59 371.37Z" />
				<path id="&lt;Path&gt;" class="shp11" d="M537.9 419.47L528.15 413.84C527.37 413.39 527.46 412.6 528.37 412.07L531.56 410.23C532.47 409.71 533.83 409.65 534.62 410.1L544.37 415.73C545.15 416.19 545.05 416.98 544.15 417.5L540.96 419.34C540.05 419.86 538.68 419.92 537.9 419.47Z" />
				<path id="&lt;Path&gt;" class="shp11" d="M552.82 428.08L543.07 422.45C542.29 422 542.39 421.21 543.29 420.69L546.49 418.85C547.39 418.32 548.76 418.27 549.54 418.72L559.29 424.35C560.08 424.8 559.98 425.59 559.07 426.11L555.88 427.96C554.97 428.48 553.61 428.54 552.82 428.08Z" />
				<path id="&lt;Path&gt;" class="shp11" d="M567.75 436.7L557.99 431.07C557.21 430.62 557.31 429.83 558.21 429.31L561.41 427.46C562.31 426.94 563.68 426.88 564.46 427.34L574.22 432.97C575 433.42 574.9 434.21 574 434.73L570.8 436.57C569.9 437.1 568.53 437.15 567.75 436.7Z" />
				<path id="&lt;Path&gt;" class="shp11" d="M582.67 445.32L572.92 439.69C572.13 439.23 572.23 438.44 573.14 437.92L576.33 436.08C577.24 435.56 578.6 435.5 579.39 435.95L589.14 441.58C589.92 442.03 589.82 442.82 588.92 443.35L585.73 445.19C584.82 445.71 583.45 445.77 582.67 445.32Z" />
				<path id="&lt;Path&gt;" class="shp11" d="M434.87 377.78L425.12 372.15C424.33 371.69 424.43 370.91 425.34 370.38L435 364.8C435.9 364.28 437.27 364.23 438.05 364.68L447.81 370.31C448.59 370.76 448.49 371.55 447.59 372.07L437.92 377.65C437.02 378.17 435.65 378.23 434.87 377.78Z" />
				<path id="&lt;Path&gt;" class="shp11" d="M449.93 386.47L440.18 380.84C439.39 380.39 439.49 379.6 440.4 379.08L450.06 373.5C450.96 372.98 452.33 372.92 453.11 373.37L462.87 379C463.65 379.46 463.55 380.25 462.65 380.77L452.98 386.35C452.08 386.87 450.71 386.92 449.93 386.47Z" />
				<path id="&lt;Path&gt;" class="shp11" d="M464.99 395.17L455.24 389.54C454.45 389.09 454.55 388.3 455.46 387.77L465.12 382.19C466.02 381.67 467.39 381.62 468.17 382.07L477.93 387.7C478.71 388.15 478.61 388.94 477.71 389.46L468.04 395.04C467.14 395.56 465.77 395.62 464.99 395.17Z" />
				<path id="&lt;Path&gt;" class="shp11" d="M480.05 403.86L470.3 398.23C469.52 397.78 469.61 396.99 470.52 396.47L480.18 390.89C481.08 390.37 482.45 390.31 483.24 390.76L492.99 396.39C493.77 396.85 493.67 397.64 492.77 398.16L483.11 403.74C482.2 404.26 480.83 404.32 480.05 403.86Z" />
				<path id="&lt;Path&gt;" class="shp11" d="M495.11 412.56L485.36 406.93C484.58 406.48 484.67 405.69 485.58 405.16L495.24 399.58C496.15 399.06 497.51 399.01 498.3 399.46L508.05 405.09C508.83 405.54 508.73 406.33 507.83 406.85L498.17 412.43C497.26 412.95 495.89 413.01 495.11 412.56Z" />
				<path id="&lt;Path&gt;" class="shp11" d="M510.17 421.25L500.42 415.62C499.64 415.17 499.73 414.38 500.64 413.86L510.3 408.28C511.21 407.76 512.57 407.7 513.36 408.15L523.11 413.78C523.89 414.24 523.79 415.03 522.89 415.55L513.23 421.13C512.32 421.65 510.95 421.71 510.17 421.25Z" />
				<path id="&lt;Path&gt;" class="shp11" d="M525.23 429.95L515.48 424.32C514.7 423.87 514.8 423.08 515.7 422.55L525.36 416.98C526.27 416.45 527.63 416.4 528.42 416.85L538.17 422.48C538.95 422.93 538.85 423.72 537.95 424.24L528.29 429.82C527.38 430.34 526.02 430.4 525.23 429.95Z" />
				<path id="&lt;Path&gt;" class="shp11" d="M540.29 438.64L530.54 433.01C529.76 432.56 529.86 431.77 530.76 431.25L540.42 425.67C541.33 425.15 542.69 425.09 543.48 425.54L553.23 431.17C554.01 431.63 553.91 432.42 553.01 432.94L543.35 438.52C542.44 439.04 541.08 439.1 540.29 438.64Z" />
				<path id="&lt;Path&gt;" class="shp11" d="M555.35 447.34L545.6 441.71C544.82 441.26 544.92 440.47 545.82 439.94L555.48 434.37C556.39 433.84 557.75 433.79 558.54 434.24L568.29 439.87C569.07 440.32 568.98 441.11 568.07 441.63L558.41 447.21C557.5 447.73 556.14 447.79 555.35 447.34Z" />
				<path id="&lt;Path&gt;" class="shp11" d="M348.77 378.85L320.04 362.27C319.26 361.82 319.36 361.03 320.26 360.5L329.93 354.93C330.83 354.4 332.2 354.35 332.98 354.8L361.7 371.38C362.49 371.83 362.39 372.62 361.48 373.15L351.82 378.72C350.92 379.25 349.55 379.3 348.77 378.85Z" />
				<path id="&lt;Path&gt;" class="shp11" d="M533.79 485.67L505.07 469.09C504.28 468.64 504.38 467.85 505.29 467.33L514.95 461.75C515.85 461.23 517.22 461.17 518 461.62L546.72 478.2C547.51 478.66 547.41 479.45 546.51 479.97L536.84 485.55C535.94 486.07 534.57 486.13 533.79 485.67Z" />
				<path id="&lt;Path&gt;" class="shp11" d="M473.56 470.11L463.81 464.48C463.02 464.02 463.12 463.23 464.03 462.71L475.54 456.07C476.44 455.54 477.81 455.49 478.59 455.94L488.34 461.57C489.13 462.02 489.03 462.81 488.12 463.33L476.61 469.98C475.71 470.5 474.34 470.56 473.56 470.11Z" />
				<path id="&lt;Path&gt;" class="shp11" d="M364.19 406.96L348.59 397.96C347.81 397.51 347.91 396.72 348.81 396.19L360.32 389.55C361.23 389.03 362.59 388.97 363.38 389.42L378.97 398.43C379.76 398.88 379.66 399.67 378.75 400.19L367.24 406.84C366.34 407.36 364.97 407.41 364.19 406.96Z" />
				<path id="&lt;Path&gt;" class="shp11" d="M459.05 461.73L443.45 452.72C442.67 452.27 442.77 451.48 443.67 450.96L455.18 444.31C456.09 443.79 457.45 443.74 458.24 444.19L473.83 453.19C474.62 453.64 474.52 454.43 473.61 454.96L462.1 461.6C461.2 462.12 459.83 462.18 459.05 461.73Z" />
				<path id="&lt;Path&gt;" class="shp11" d="M385.92 419.51L370.32 410.5C369.54 410.05 369.64 409.26 370.54 408.74L382.05 402.09C382.96 401.57 384.32 401.51 385.11 401.97L400.7 410.97C401.49 411.42 401.39 412.21 400.48 412.74L388.97 419.38C388.07 419.9 386.7 419.96 385.92 419.51Z" />
				<path id="&lt;Path&gt;" class="shp11" d="M385.21 402.03L453.02 441.18C453.86 441.66 453.86 442.45 453.02 442.94L441.28 449.71C440.44 450.2 439.08 450.2 438.24 449.71L370.43 410.56L385.21 402.03Z" />
				<path id="&lt;Path&gt;" class="shp11" d="M515.65 485.87L526.51 492.14C527.16 492.51 527.07 493.16 526.33 493.59L521.62 496.31C520.88 496.74 519.76 496.78 519.12 496.41L508.26 490.14C507.62 489.77 507.7 489.12 508.44 488.69L513.15 485.98C513.89 485.55 515.01 485.5 515.65 485.87Z" />
				<path id="&lt;Path&gt;" class="shp11" d="M500.46 477.1L511.33 483.38C511.97 483.75 511.89 484.39 511.15 484.82L506.44 487.54C505.7 487.97 504.58 488.02 503.94 487.65L493.07 481.37C492.43 481 492.51 480.36 493.25 479.93L497.96 477.21C498.7 476.78 499.82 476.73 500.46 477.1Z" />
				<path id="&lt;Path&gt;" class="shp11" d="M485.4 468.41L496.27 474.68C496.91 475.05 496.83 475.7 496.09 476.13L491.38 478.85C490.64 479.27 489.52 479.32 488.87 478.95L478.01 472.68C477.37 472.31 477.45 471.66 478.19 471.23L482.9 468.51C483.64 468.09 484.76 468.04 485.4 468.41Z" />
				<path id="&lt;Path&gt;" class="shp11" d="M508.78 472.3L519.64 478.58C520.29 478.95 520.21 479.59 519.47 480.02L514.76 482.74C514.01 483.17 512.89 483.21 512.25 482.84L501.39 476.57C500.75 476.2 500.83 475.55 501.57 475.13L506.28 472.41C507.02 471.98 508.14 471.93 508.78 472.3Z" />
			</g>
			<g id="&lt;Group&gt;" style="opacity: 0.4">
				<path id="&lt;Path&gt;" class="shp11" d="M313.16 377.5L303.41 371.87C302.63 371.42 302.73 370.63 303.63 370.11L315.14 363.46C316.04 362.94 317.41 362.88 318.2 363.34L327.95 368.97C328.73 369.42 328.63 370.21 327.73 370.73L316.22 377.38C315.31 377.9 313.95 377.95 313.16 377.5Z" />
				<path id="&lt;Path&gt;" class="shp11" d="M328.22 386.2L318.47 380.57C317.69 380.11 317.79 379.33 318.69 378.8L330.2 372.16C331.11 371.64 332.47 371.58 333.26 372.03L343.01 377.66C343.79 378.11 343.69 378.9 342.79 379.42L331.28 386.07C330.37 386.59 329.01 386.65 328.22 386.2Z" />
				<path id="&lt;Path&gt;" class="shp11" d="M343.28 394.89L333.53 389.26C332.75 388.81 332.85 388.02 333.75 387.5L345.26 380.85C346.17 380.33 347.53 380.27 348.32 380.73L358.07 386.36C358.85 386.81 358.75 387.6 357.85 388.12L346.34 394.77C345.43 395.29 344.07 395.34 343.28 394.89Z" />
				<path id="&lt;Path&gt;" class="shp11" d="M364.11 387.71L354.36 382.08C353.58 381.63 353.68 380.84 354.58 380.32L364.24 374.74C365.15 374.22 366.51 374.16 367.3 374.61L377.05 380.24C377.83 380.69 377.74 381.48 376.83 382.01L367.17 387.59C366.26 388.11 364.9 388.16 364.11 387.71Z" />
				<path id="&lt;Path&gt;" class="shp11" d="M379.17 396.41L369.42 390.78C368.64 390.32 368.74 389.53 369.64 389.01L379.3 383.43C380.21 382.91 381.58 382.86 382.36 383.31L392.11 388.94C392.89 389.39 392.8 390.18 391.89 390.7L382.23 396.28C381.32 396.8 379.96 396.86 379.17 396.41Z" />
				<path id="&lt;Path&gt;" class="shp11" d="M394.23 405.1L384.48 399.47C383.7 399.02 383.8 398.23 384.7 397.71L394.36 392.13C395.27 391.61 396.64 391.55 397.42 392L407.17 397.63C407.95 398.08 407.86 398.87 406.95 399.4L397.29 404.98C396.38 405.5 395.02 405.55 394.23 405.1Z" />
				<path id="&lt;Path&gt;" class="shp11" d="M409.29 413.8L399.54 408.17C398.76 407.72 398.86 406.93 399.76 406.4L409.42 400.82C410.33 400.3 411.7 400.25 412.48 400.7L422.23 406.33C423.01 406.78 422.92 407.57 422.01 408.09L412.35 413.67C411.45 414.19 410.08 414.25 409.29 413.8Z" />
				<path id="&lt;Path&gt;" class="shp11" d="M424.36 422.49L414.6 416.86C413.82 416.41 413.92 415.62 414.82 415.1L424.49 409.52C425.39 409 426.76 408.94 427.54 409.39L437.29 415.02C438.08 415.48 437.98 416.27 437.07 416.79L427.41 422.37C426.51 422.89 425.14 422.94 424.36 422.49Z" />
				<path id="&lt;Path&gt;" class="shp11" d="M439.42 431.19L429.66 425.56C428.88 425.11 428.98 424.32 429.88 423.79L439.55 418.21C440.45 417.69 441.82 417.64 442.6 418.09L452.35 423.72C453.14 424.17 453.04 424.96 452.13 425.48L442.47 431.06C441.57 431.58 440.2 431.64 439.42 431.19Z" />
				<path id="&lt;Path&gt;" class="shp11" d="M454.48 439.88L444.72 434.25C443.94 433.8 444.04 433.01 444.94 432.49L454.61 426.91C455.51 426.39 456.88 426.33 457.66 426.78L467.41 432.41C468.2 432.87 468.1 433.66 467.19 434.18L457.53 439.76C456.63 440.28 455.26 440.34 454.48 439.88Z" />
				<path id="&lt;Path&gt;" class="shp11" d="M469.54 448.58L459.78 442.95C459 442.5 459.1 441.71 460 441.18L469.67 435.61C470.57 435.08 471.94 435.03 472.72 435.48L482.47 441.11C483.26 441.56 483.16 442.35 482.25 442.87L472.59 448.45C471.69 448.97 470.32 449.03 469.54 448.58Z" />
				<path id="&lt;Path&gt;" class="shp11" d="M484.6 457.27L474.85 451.64C474.06 451.19 474.16 450.4 475.06 449.88L484.73 444.3C485.63 443.78 487 443.72 487.78 444.17L497.53 449.8C498.32 450.26 498.22 451.05 497.32 451.57L487.65 457.15C486.75 457.67 485.38 457.73 484.6 457.27Z" />
				<path id="&lt;Path&gt;" class="shp11" d="M499.66 465.97L489.91 460.34C489.12 459.89 489.22 459.1 490.13 458.57L499.79 453C500.69 452.47 502.06 452.42 502.84 452.87L512.6 458.5C513.38 458.95 513.28 459.74 512.38 460.26L502.71 465.84C501.81 466.36 500.44 466.42 499.66 465.97Z" />
				<path id="&lt;Path&gt;" class="shp11" d="M386.3 383.6L376.55 377.96C375.77 377.51 375.87 376.72 376.77 376.2L386.43 370.62C387.34 370.1 388.71 370.04 389.49 370.5L399.24 376.13C400.02 376.58 399.93 377.37 399.02 377.89L389.36 383.47C388.45 383.99 387.09 384.05 386.3 383.6Z" />
				<path id="&lt;Path&gt;" class="shp11" d="M371.02 374.77L361.27 369.14C360.48 368.69 360.58 367.9 361.49 367.38L371.15 361.8C372.05 361.27 373.42 361.22 374.2 361.67L383.96 367.3C384.74 367.75 384.64 368.54 383.74 369.06L374.07 374.64C373.17 375.17 371.8 375.22 371.02 374.77Z" />
				<path id="&lt;Path&gt;" class="shp11" d="M355.71 365.93L334.7 353.8C333.92 353.35 334.02 352.56 334.92 352.04L344.59 346.46C345.49 345.94 346.86 345.88 347.64 346.33L368.65 358.46C369.43 358.91 369.33 359.7 368.43 360.23L358.76 365.8C357.86 366.33 356.49 366.38 355.71 365.93Z" />
				<path id="&lt;Path&gt;" class="shp11" d="M366.41 355.18L349.36 345.34C348.58 344.89 348.68 344.1 349.58 343.58L359.25 338C360.15 337.48 361.52 337.42 362.3 337.87L379.35 347.71C380.13 348.16 380.03 348.95 379.13 349.48L369.47 355.05C368.56 355.58 367.19 355.63 366.41 355.18Z" />
				<path id="&lt;Path&gt;" class="shp11" d="M401.36 392.29L391.61 386.66C390.83 386.21 390.93 385.42 391.83 384.9L401.49 379.32C402.4 378.8 403.77 378.74 404.55 379.19L414.3 384.82C415.08 385.27 414.99 386.06 414.08 386.58L404.42 392.16C403.52 392.69 402.15 392.74 401.36 392.29Z" />
				<path id="&lt;Path&gt;" class="shp11" d="M416.43 400.99L406.67 395.36C405.89 394.9 405.99 394.11 406.89 393.59L416.55 388.01C417.46 387.49 418.83 387.43 419.61 387.89L429.36 393.52C430.15 393.97 430.05 394.76 429.14 395.28L419.48 400.86C418.58 401.38 417.21 401.44 416.43 400.99Z" />
				<path id="&lt;Path&gt;" class="shp11" d="M431.49 409.68L421.73 404.05C420.95 403.6 421.05 402.81 421.95 402.29L431.62 396.71C432.52 396.19 433.89 396.13 434.67 396.58L444.42 402.21C445.21 402.66 445.11 403.45 444.2 403.98L434.54 409.55C433.64 410.08 432.27 410.13 431.49 409.68Z" />
				<path id="&lt;Path&gt;" class="shp11" d="M446.55 418.38L436.79 412.75C436.01 412.29 436.11 411.5 437.01 410.98L446.68 405.4C447.58 404.88 448.95 404.82 449.73 405.28L459.48 410.91C460.27 411.36 460.17 412.15 459.26 412.67L449.6 418.25C448.7 418.77 447.33 418.83 446.55 418.38Z" />
				<path id="&lt;Path&gt;" class="shp11" d="M461.61 427.07L451.85 421.44C451.07 420.99 451.17 420.2 452.07 419.68L461.74 414.1C462.64 413.58 464.01 413.52 464.79 413.97L474.54 419.6C475.33 420.05 475.23 420.84 474.32 421.37L464.66 426.94C463.76 427.47 462.39 427.52 461.61 427.07Z" />
				<path id="&lt;Path&gt;" class="shp11" d="M476.67 435.77L466.91 430.14C466.13 429.68 466.23 428.89 467.13 428.37L476.8 422.79C477.7 422.27 479.07 422.21 479.85 422.67L489.6 428.3C490.39 428.75 490.29 429.54 489.38 430.06L479.72 435.64C478.82 436.16 477.45 436.22 476.67 435.77Z" />
				<path id="&lt;Path&gt;" class="shp11" d="M491.73 444.46L481.98 438.83C481.19 438.38 481.29 437.59 482.19 437.07L491.86 431.49C492.76 430.97 494.13 430.91 494.91 431.36L504.66 436.99C505.45 437.44 505.35 438.23 504.45 438.76L494.78 444.33C493.88 444.86 492.51 444.91 491.73 444.46Z" />
				<path id="&lt;Path&gt;" class="shp11" d="M506.79 453.16L497.04 447.53C496.25 447.07 496.35 446.28 497.26 445.76L506.92 440.18C507.82 439.66 509.19 439.6 509.97 440.06L519.73 445.69C520.51 446.14 520.41 446.93 519.51 447.45L509.84 453.03C508.94 453.55 507.57 453.61 506.79 453.16Z" />
				<path id="&lt;Path&gt;" class="shp11" d="M521.85 461.85L512.1 456.22C511.31 455.77 511.41 454.98 512.32 454.46L521.98 448.88C522.88 448.36 524.25 448.3 525.03 448.75L534.79 454.38C535.57 454.83 535.47 455.62 534.57 456.15L524.9 461.73C524 462.25 522.63 462.3 521.85 461.85Z" />
				<path id="&lt;Path&gt;" class="shp11" d="M548.62 477.31L527.34 465.02C526.56 464.57 526.66 463.78 527.56 463.26L537.23 457.68C538.13 457.16 539.5 457.1 540.28 457.56L561.56 469.84C562.34 470.29 562.25 471.08 561.34 471.6L551.68 477.18C550.77 477.71 549.41 477.76 548.62 477.31Z" />
				<path id="&lt;Path&gt;" class="shp11" d="M577.94 460.38L559.98 450.01C559.2 449.56 559.3 448.77 560.2 448.25L569.87 442.67C570.77 442.15 572.14 442.09 572.92 442.54L590.88 452.91C591.66 453.36 591.57 454.15 590.66 454.68L581 460.26C580.09 460.78 578.73 460.83 577.94 460.38Z" />
				<path id="&lt;Path&gt;" class="shp11" d="M427.74 390.59L417.99 384.96C417.2 384.51 417.3 383.72 418.21 383.19L427.87 377.62C428.77 377.09 430.14 377.04 430.92 377.49L440.68 383.12C441.46 383.57 441.36 384.36 440.46 384.88L430.79 390.46C429.89 390.98 428.52 391.04 427.74 390.59Z" />
				<path id="&lt;Path&gt;" class="shp11" d="M412.3 381.68L402.55 376.05C401.77 375.59 401.87 374.81 402.77 374.28L412.43 368.7C413.34 368.18 414.71 368.13 415.49 368.58L425.24 374.21C426.02 374.66 425.93 375.45 425.02 375.97L415.36 381.55C414.45 382.07 413.09 382.13 412.3 381.68Z" />
				<path id="&lt;Path&gt;" class="shp11" d="M396.87 372.77L387.12 367.14C386.33 366.68 386.43 365.89 387.34 365.37L397 359.79C397.9 359.27 399.27 359.21 400.05 359.67L409.81 365.3C410.59 365.75 410.49 366.54 409.59 367.06L399.92 372.64C399.02 373.16 397.65 373.22 396.87 372.77Z" />
				<path id="&lt;Path&gt;" class="shp11" d="M381.43 363.85L371.68 358.22C370.9 357.77 371 356.98 371.9 356.46L381.56 350.88C382.47 350.36 383.84 350.3 384.62 350.75L394.37 356.39C395.15 356.84 395.06 357.63 394.15 358.15L384.49 363.73C383.58 364.25 382.22 364.31 381.43 363.85Z" />
				<path id="&lt;Path&gt;" class="shp11" d="M442.8 399.28L433.05 393.65C432.26 393.2 432.36 392.41 433.27 391.89L442.93 386.31C443.83 385.79 445.2 385.73 445.98 386.18L455.74 391.82C456.52 392.27 456.42 393.06 455.52 393.58L445.85 399.16C444.95 399.68 443.58 399.74 442.8 399.28Z" />
				<path id="&lt;Path&gt;" class="shp11" d="M457.86 407.98L448.11 402.35C447.32 401.9 447.42 401.11 448.33 400.59L457.99 395.01C458.89 394.48 460.26 394.43 461.04 394.88L470.8 400.51C471.58 400.96 471.48 401.75 470.58 402.27L460.91 407.85C460.01 408.38 458.64 408.43 457.86 407.98Z" />
				<path id="&lt;Path&gt;" class="shp11" d="M472.92 416.67L463.17 411.04C462.38 410.59 462.48 409.8 463.39 409.28L473.05 403.7C473.95 403.18 475.32 403.12 476.11 403.58L485.86 409.21C486.64 409.66 486.54 410.45 485.64 410.97L475.98 416.55C475.07 417.07 473.7 417.13 472.92 416.67Z" />
				<path id="&lt;Path&gt;" class="shp11" d="M487.98 425.37L478.23 419.74C477.45 419.29 477.54 418.5 478.45 417.98L488.11 412.4C489.01 411.87 490.38 411.82 491.17 412.27L500.92 417.9C501.7 418.35 501.6 419.14 500.7 419.66L491.04 425.24C490.13 425.77 488.76 425.82 487.98 425.37Z" />
				<path id="&lt;Path&gt;" class="shp11" d="M503.04 434.07L493.29 428.43C492.51 427.98 492.6 427.19 493.51 426.67L503.17 421.09C504.08 420.57 505.44 420.51 506.23 420.97L515.98 426.6C516.76 427.05 516.66 427.84 515.76 428.36L506.1 433.94C505.19 434.46 503.82 434.52 503.04 434.07Z" />
				<path id="&lt;Path&gt;" class="shp11" d="M518.1 442.76L508.35 437.13C507.57 436.68 507.66 435.89 508.57 435.37L518.23 429.79C519.14 429.27 520.5 429.21 521.29 429.66L531.04 435.29C531.82 435.74 531.72 436.53 530.82 437.05L521.16 442.63C520.25 443.16 518.88 443.21 518.1 442.76Z" />
				<path id="&lt;Path&gt;" class="shp11" d="M533.16 451.46L523.41 445.83C522.63 445.37 522.73 444.58 523.63 444.06L533.29 438.48C534.2 437.96 535.56 437.9 536.35 438.36L546.1 443.99C546.88 444.44 546.78 445.23 545.88 445.75L536.22 451.33C535.31 451.85 533.95 451.91 533.16 451.46Z" />
				<path id="&lt;Path&gt;" class="shp11" d="M548.22 460.15L538.47 454.52C537.69 454.07 537.79 453.28 538.69 452.76L548.35 447.18C549.26 446.66 550.62 446.6 551.41 447.05L561.16 452.68C561.94 453.13 561.85 453.92 560.94 454.45L551.28 460.02C550.37 460.55 549.01 460.6 548.22 460.15Z" />
				<path id="&lt;Path&gt;" class="shp11" d="M563.28 468.85L553.53 463.22C552.75 462.76 552.85 461.97 553.75 461.45L563.41 455.87C564.32 455.35 565.69 455.29 566.47 455.75L576.22 461.38C577 461.83 576.91 462.62 576 463.14L566.34 468.72C565.43 469.24 564.07 469.3 563.28 468.85Z" />
				<path id="&lt;Path&gt;" class="shp11" d="M419.81 369.08L410.06 363.45C409.27 363 409.37 362.21 410.28 361.69L419.94 356.11C420.84 355.59 422.21 355.53 422.99 355.98L432.75 361.61C433.53 362.07 433.43 362.85 432.53 363.38L422.86 368.96C421.96 369.48 420.59 369.53 419.81 369.08Z" />
				<path id="&lt;Path&gt;" class="shp11" d="M404.82 360.43L395.07 354.8C394.29 354.35 394.39 353.56 395.29 353.04L404.95 347.46C405.86 346.93 407.22 346.88 408.01 347.33L417.76 352.96C418.54 353.41 418.44 354.2 417.54 354.72L407.88 360.3C406.97 360.83 405.61 360.88 404.82 360.43Z" />
				<path id="&lt;Path&gt;" class="shp11" d="M389.84 351.78L380.08 346.15C379.3 345.7 379.4 344.91 380.3 344.38L389.97 338.81C390.87 338.28 392.24 338.23 393.02 338.68L402.77 344.31C403.56 344.76 403.46 345.55 402.56 346.07L392.89 351.65C391.99 352.17 390.62 352.23 389.84 351.78Z" />
				<path id="&lt;Path&gt;" class="shp11" d="M374.85 343.13L365.1 337.5C364.32 337.04 364.41 336.25 365.32 335.73L374.98 330.15C375.89 329.63 377.25 329.57 378.04 330.03L387.79 335.66C388.57 336.11 388.47 336.9 387.57 337.42L377.91 343C377 343.52 375.63 343.58 374.85 343.13Z" />
				<path id="&lt;Path&gt;" class="shp11" d="M390.26 334.23L380.51 328.6C379.73 328.15 379.82 327.36 380.73 326.84L383.92 324.99C384.83 324.47 386.19 324.41 386.98 324.86L396.73 330.49C397.51 330.95 397.41 331.74 396.51 332.26L393.32 334.1C392.41 334.62 391.04 334.68 390.26 334.23Z" />
				<path id="&lt;Path&gt;" class="shp11" d="M409.82 345.52L400.07 339.89C399.28 339.44 399.38 338.65 400.28 338.13L403.48 336.28C404.38 335.76 405.75 335.7 406.53 336.16L416.29 341.79C417.07 342.24 416.97 343.03 416.07 343.55L412.87 345.39C411.97 345.92 410.6 345.97 409.82 345.52Z" />
				<path id="&lt;Path&gt;" class="shp11" d="M424.74 354.14L414.99 348.51C414.21 348.05 414.3 347.26 415.21 346.74L418.4 344.9C419.31 344.38 420.67 344.32 421.46 344.77L431.21 350.4C431.99 350.85 431.89 351.64 430.99 352.17L427.8 354.01C426.89 354.53 425.52 354.59 424.74 354.14Z" />
				<path id="&lt;Path&gt;" class="shp11" d="M439.66 362.75L429.91 357.12C429.13 356.67 429.23 355.88 430.13 355.36L433.33 353.51C434.23 352.99 435.6 352.93 436.38 353.39L446.13 359.02C446.92 359.47 446.82 360.26 445.91 360.78L442.72 362.63C441.81 363.15 440.45 363.2 439.66 362.75Z" />
				<path id="&lt;Path&gt;" class="shp11" d="M454.59 371.37L444.83 365.74C444.05 365.29 444.15 364.5 445.05 363.97L448.25 362.13C449.15 361.61 450.52 361.55 451.3 362L461.06 367.63C461.84 368.09 461.74 368.88 460.84 369.4L457.64 371.24C456.74 371.76 455.37 371.82 454.59 371.37Z" />
				<path id="&lt;Path&gt;" class="shp11" d="M537.9 419.47L528.15 413.84C527.37 413.39 527.46 412.6 528.37 412.07L531.56 410.23C532.47 409.71 533.83 409.65 534.62 410.1L544.37 415.73C545.15 416.19 545.05 416.98 544.15 417.5L540.96 419.34C540.05 419.86 538.68 419.92 537.9 419.47Z" />
				<path id="&lt;Path&gt;" class="shp11" d="M552.82 428.08L543.07 422.45C542.29 422 542.39 421.21 543.29 420.69L546.49 418.85C547.39 418.32 548.76 418.27 549.54 418.72L559.29 424.35C560.08 424.8 559.98 425.59 559.07 426.11L555.88 427.96C554.97 428.48 553.61 428.54 552.82 428.08Z" />
				<path id="&lt;Path&gt;" class="shp11" d="M567.75 436.7L557.99 431.07C557.21 430.62 557.31 429.83 558.21 429.31L561.41 427.46C562.31 426.94 563.68 426.88 564.46 427.34L574.22 432.97C575 433.42 574.9 434.21 574 434.73L570.8 436.57C569.9 437.1 568.53 437.15 567.75 436.7Z" />
				<path id="&lt;Path&gt;" class="shp11" d="M582.67 445.32L572.92 439.69C572.13 439.23 572.23 438.44 573.14 437.92L576.33 436.08C577.24 435.56 578.6 435.5 579.39 435.95L589.14 441.58C589.92 442.03 589.82 442.82 588.92 443.35L585.73 445.19C584.82 445.71 583.45 445.77 582.67 445.32Z" />
				<path id="&lt;Path&gt;" class="shp11" d="M434.87 377.78L425.12 372.15C424.33 371.69 424.43 370.91 425.34 370.38L435 364.8C435.9 364.28 437.27 364.23 438.05 364.68L447.81 370.31C448.59 370.76 448.49 371.55 447.59 372.07L437.92 377.65C437.02 378.17 435.65 378.23 434.87 377.78Z" />
				<path id="&lt;Path&gt;" class="shp11" d="M449.93 386.47L440.18 380.84C439.39 380.39 439.49 379.6 440.4 379.08L450.06 373.5C450.96 372.98 452.33 372.92 453.11 373.37L462.87 379C463.65 379.46 463.55 380.25 462.65 380.77L452.98 386.35C452.08 386.87 450.71 386.92 449.93 386.47Z" />
				<path id="&lt;Path&gt;" class="shp11" d="M464.99 395.17L455.24 389.54C454.45 389.09 454.55 388.3 455.46 387.77L465.12 382.19C466.02 381.67 467.39 381.62 468.17 382.07L477.93 387.7C478.71 388.15 478.61 388.94 477.71 389.46L468.04 395.04C467.14 395.56 465.77 395.62 464.99 395.17Z" />
				<path id="&lt;Path&gt;" class="shp11" d="M480.05 403.86L470.3 398.23C469.52 397.78 469.61 396.99 470.52 396.47L480.18 390.89C481.08 390.37 482.45 390.31 483.24 390.76L492.99 396.39C493.77 396.85 493.67 397.64 492.77 398.16L483.11 403.74C482.2 404.26 480.83 404.32 480.05 403.86Z" />
				<path id="&lt;Path&gt;" class="shp11" d="M495.11 412.56L485.36 406.93C484.58 406.48 484.67 405.69 485.58 405.16L495.24 399.58C496.15 399.06 497.51 399.01 498.3 399.46L508.05 405.09C508.83 405.54 508.73 406.33 507.83 406.85L498.17 412.43C497.26 412.95 495.89 413.01 495.11 412.56Z" />
				<path id="&lt;Path&gt;" class="shp11" d="M510.17 421.25L500.42 415.62C499.64 415.17 499.73 414.38 500.64 413.86L510.3 408.28C511.21 407.76 512.57 407.7 513.36 408.15L523.11 413.78C523.89 414.24 523.79 415.03 522.89 415.55L513.23 421.13C512.32 421.65 510.95 421.71 510.17 421.25Z" />
				<path id="&lt;Path&gt;" class="shp11" d="M525.23 429.95L515.48 424.32C514.7 423.87 514.8 423.08 515.7 422.55L525.36 416.98C526.27 416.45 527.63 416.4 528.42 416.85L538.17 422.48C538.95 422.93 538.85 423.72 537.95 424.24L528.29 429.82C527.38 430.34 526.02 430.4 525.23 429.95Z" />
				<path id="&lt;Path&gt;" class="shp11" d="M540.29 438.64L530.54 433.01C529.76 432.56 529.86 431.77 530.76 431.25L540.42 425.67C541.33 425.15 542.69 425.09 543.48 425.54L553.23 431.17C554.01 431.63 553.91 432.42 553.01 432.94L543.35 438.52C542.44 439.04 541.08 439.1 540.29 438.64Z" />
				<path id="&lt;Path&gt;" class="shp11" d="M555.35 447.34L545.6 441.71C544.82 441.26 544.92 440.47 545.82 439.94L555.48 434.37C556.39 433.84 557.75 433.79 558.54 434.24L568.29 439.87C569.07 440.32 568.98 441.11 568.07 441.63L558.41 447.21C557.5 447.73 556.14 447.79 555.35 447.34Z" />
				<path id="&lt;Path&gt;" class="shp11" d="M348.77 378.85L320.04 362.27C319.26 361.82 319.36 361.03 320.26 360.5L329.93 354.93C330.83 354.4 332.2 354.35 332.98 354.8L361.7 371.38C362.49 371.83 362.39 372.62 361.48 373.15L351.82 378.72C350.92 379.25 349.55 379.3 348.77 378.85Z" />
				<path id="&lt;Path&gt;" class="shp11" d="M533.79 485.67L505.07 469.09C504.28 468.64 504.38 467.85 505.29 467.33L514.95 461.75C515.85 461.23 517.22 461.17 518 461.62L546.72 478.2C547.51 478.66 547.41 479.45 546.51 479.97L536.84 485.55C535.94 486.07 534.57 486.13 533.79 485.67Z" />
				<path id="&lt;Path&gt;" class="shp11" d="M473.56 470.11L463.81 464.48C463.02 464.02 463.12 463.23 464.03 462.71L475.54 456.07C476.44 455.54 477.81 455.49 478.59 455.94L488.34 461.57C489.13 462.02 489.03 462.81 488.12 463.33L476.61 469.98C475.71 470.5 474.34 470.56 473.56 470.11Z" />
				<path id="&lt;Path&gt;" class="shp11" d="M364.19 406.96L348.59 397.96C347.81 397.51 347.91 396.72 348.81 396.19L360.32 389.55C361.23 389.03 362.59 388.97 363.38 389.42L378.97 398.43C379.76 398.88 379.66 399.67 378.75 400.19L367.24 406.84C366.34 407.36 364.97 407.41 364.19 406.96Z" />
				<path id="&lt;Path&gt;" class="shp11" d="M459.05 461.73L443.45 452.72C442.67 452.27 442.77 451.48 443.67 450.96L455.18 444.31C456.09 443.79 457.45 443.74 458.24 444.19L473.83 453.19C474.62 453.64 474.52 454.43 473.61 454.96L462.1 461.6C461.2 462.12 459.83 462.18 459.05 461.73Z" />
				<path id="&lt;Path&gt;" class="shp11" d="M385.92 419.51L370.32 410.5C369.54 410.05 369.64 409.26 370.54 408.74L382.05 402.09C382.96 401.57 384.32 401.51 385.11 401.97L400.7 410.97C401.49 411.42 401.39 412.21 400.48 412.74L388.97 419.38C388.07 419.9 386.7 419.96 385.92 419.51Z" />
				<path id="&lt;Path&gt;" class="shp11" d="M385.21 402.03L453.02 441.18C453.86 441.66 453.86 442.45 453.02 442.94L441.28 449.71C440.44 450.2 439.08 450.2 438.24 449.71L370.43 410.56L385.21 402.03Z" />
				<path id="&lt;Path&gt;" class="shp11" d="M515.65 485.87L526.51 492.14C527.16 492.51 527.07 493.16 526.33 493.59L521.62 496.31C520.88 496.74 519.76 496.78 519.12 496.41L508.26 490.14C507.62 489.77 507.7 489.12 508.44 488.69L513.15 485.98C513.89 485.55 515.01 485.5 515.65 485.87Z" />
				<path id="&lt;Path&gt;" class="shp11" d="M500.46 477.1L511.33 483.38C511.97 483.75 511.89 484.39 511.15 484.82L506.44 487.54C505.7 487.97 504.58 488.02 503.94 487.65L493.07 481.37C492.43 481 492.51 480.36 493.25 479.93L497.96 477.21C498.7 476.78 499.82 476.73 500.46 477.1Z" />
				<path id="&lt;Path&gt;" class="shp11" d="M485.4 468.41L496.27 474.68C496.91 475.05 496.83 475.7 496.09 476.13L491.38 478.85C490.64 479.27 489.52 479.32 488.87 478.95L478.01 472.68C477.37 472.31 477.45 471.66 478.19 471.23L482.9 468.51C483.64 468.09 484.76 468.04 485.4 468.41Z" />
				<path id="&lt;Path&gt;" class="shp11" d="M508.78 472.3L519.64 478.58C520.29 478.95 520.21 479.59 519.47 480.02L514.76 482.74C514.01 483.17 512.89 483.21 512.25 482.84L501.39 476.57C500.75 476.2 500.83 475.55 501.57 475.13L506.28 472.41C507.02 471.98 508.14 471.93 508.78 472.3Z" />
			</g>
			<path id="&lt;Path&gt;" class="shp12" d="M668.17 454.71L380.45 288.6C375.92 285.98 373.56 279.62 375.17 274.38L440.24 63.12C441.85 57.88 446.83 55.75 451.35 58.36L739.08 224.48C743.6 227.09 745.96 233.45 744.35 238.69L679.28 449.96C677.67 455.2 672.7 457.32 668.17 454.71Z" />
			<path id="&lt;Path&gt;" class="shp13" d="M665.46 447.31L386.38 286.06C382.05 283.56 379.79 277.47 381.34 272.45L443.54 70.49C445.09 65.47 449.85 63.43 454.18 65.93L733.25 227.19C737.58 229.69 739.84 235.78 738.3 240.8L676.09 442.76C674.55 447.78 669.79 449.81 665.46 447.31Z" />
			<path id="&lt;Path&gt;" class="shp14" d="M665.46 447.31L386.38 286.06C382.05 283.56 379.79 277.47 381.34 272.45L443.54 70.49C445.09 65.47 449.85 63.43 454.18 65.93L733.25 227.19C737.58 229.69 739.84 235.78 738.3 240.8L676.09 442.76C674.55 447.78 669.79 449.81 665.46 447.31Z" />
			<path id="&lt;Path&gt;" class="shp15" d="M665.46 447.31L386.38 286.06C382.05 283.56 379.79 277.47 381.34 272.45L443.54 70.49C445.09 65.47 449.85 63.43 454.18 65.93L733.25 227.19C737.58 229.69 739.84 235.78 738.3 240.8L676.09 442.76C674.55 447.78 669.79 449.81 665.46 447.31Z" />
			<path id="&lt;Path&gt;" class="shp16" d="M650.47 385.59L461.55 276.52C458.58 274.81 457.02 270.63 458.08 267.19L500.81 128.47C501.86 125.03 505.13 123.63 508.1 125.35L697.02 234.42C699.99 236.14 701.54 240.32 700.48 243.76L657.76 382.47C656.7 385.91 653.44 387.31 650.47 385.59Z" />
			<g id="&lt;Group&gt;">
				<path id="&lt;Path&gt;" class="shp17" d="M624.94 388.94L436.02 279.87C433.05 278.15 431.5 273.97 432.56 270.53L475.28 131.82C476.34 128.38 479.61 126.98 482.58 128.7L671.5 237.77C674.47 239.48 676.02 243.66 674.96 247.1L632.24 385.82C631.18 389.26 627.91 390.66 624.94 388.94Z" />
			</g>
			<g id="&lt;Group&gt;" style="opacity: 0.502">
				<path id="&lt;Path&gt;" class="shp18" d="M624.94 388.94L436.02 279.87C433.05 278.15 431.5 273.97 432.56 270.53L475.28 131.82C476.34 128.38 479.61 126.98 482.58 128.7L671.5 237.77C674.47 239.48 676.02 243.66 674.96 247.1L632.24 385.82C631.18 389.26 627.91 390.66 624.94 388.94Z" />
			</g>
			<path id="&lt;Path&gt;" class="shp10" d="M674.96 247.1L632.24 385.82C631.5 388.21 629.7 389.58 627.67 389.64C628.55 388.98 629.25 387.98 629.65 386.7L672.37 247.98C673.43 244.54 671.88 240.36 668.91 238.65L479.99 129.58C479.08 129.05 478.15 128.85 477.26 128.88C478.74 127.77 480.71 127.62 482.58 128.7L671.5 237.77C674.47 239.48 676.02 243.66 674.96 247.1Z" />
			<path id="&lt;Compound Path&gt;" fill-rule="evenodd" class="shp19" d="M386.67 502.22C384.07 502.22 381.57 501.68 379.67 500.58L379.67 500.58L303.98 456.88C301.97 455.72 300.87 454.06 300.87 452.22C300.87 450.07 302.39 447.96 305.04 446.43L344 423.93C348.76 421.19 355.75 420.92 359.92 423.32L435.61 467.02C437.61 468.18 438.72 469.83 438.72 471.68C438.72 473.83 437.2 475.94 434.54 477.47L395.58 499.97C393 501.46 389.76 502.22 386.67 502.22ZM352.95 423.89C350.22 423.89 347.31 424.55 345.1 425.83L306.14 448.32C304.18 449.45 303.05 450.87 303.05 452.22C303.05 453.54 304.15 454.45 305.07 454.98L380.76 498.69C384.2 500.66 390.48 500.39 394.49 498.07L433.45 475.58C435.41 474.45 436.53 473.03 436.53 471.68C436.53 470.36 435.43 469.45 434.51 468.91L358.82 425.22C357.29 424.33 355.17 423.89 352.95 423.89Z" />
		</g>
		<g id="&lt;Group&gt;">
			<g id="&lt;Group&gt;">
				<path id="&lt;Path&gt;" class="shp10" d="M528.59 201.47L516.91 194.73C515.83 194.1 515.25 192.6 515.61 191.37C515.98 190.14 517.16 189.65 518.24 190.28L529.92 197.02C531 197.65 531.58 199.15 531.22 200.38C530.85 201.61 529.67 202.1 528.59 201.47Z" />
				<path id="&lt;Path&gt;" class="shp10" d="M556.41 217.53L539.19 207.59C538.11 206.97 537.53 205.46 537.89 204.23C538.26 203 539.43 202.51 540.52 203.14L557.74 213.08C558.82 213.71 559.4 215.21 559.04 216.44C558.67 217.67 557.5 218.16 556.41 217.53Z" />
				<path id="&lt;Path&gt;" class="shp10" d="M505.04 253.47L493.36 246.73C492.27 246.1 491.69 244.6 492.06 243.37C492.43 242.14 493.6 241.65 494.68 242.28L506.36 249.02C507.45 249.64 508.03 251.15 507.66 252.38C507.3 253.61 506.12 254.1 505.04 253.47Z" />
				<path id="&lt;Path&gt;" class="shp10" d="M529.84 267.79L512.61 257.85C511.53 257.22 510.95 255.72 511.32 254.49C511.68 253.26 512.86 252.77 513.94 253.39L531.16 263.34C532.25 263.96 532.83 265.47 532.46 266.7C532.1 267.93 530.92 268.41 529.84 267.79Z" />
				<path id="&lt;Path&gt;" class="shp10" d="M493.6 192.2L486.31 187.99C485.22 187.37 484.64 185.86 485.01 184.63C485.38 183.4 486.55 182.92 487.64 183.54L494.93 187.75C496.02 188.38 496.6 189.88 496.23 191.11C495.86 192.34 494.69 192.83 493.6 192.2Z" />
				<path id="&lt;Path&gt;" class="shp10" d="M515.56 215.81L493.27 202.94C492.18 202.32 491.6 200.81 491.97 199.58C492.33 198.35 493.51 197.87 494.59 198.49L516.89 211.36C517.97 211.99 518.55 213.49 518.18 214.72C517.82 215.95 516.64 216.44 515.56 215.81Z" />
				<path id="&lt;Path&gt;" class="shp10" d="M495 225.81L487.7 221.6C486.62 220.97 486.04 219.47 486.4 218.24C486.77 217.01 487.95 216.52 489.03 217.14L496.33 221.36C497.41 221.98 497.99 223.49 497.62 224.72L497.62 224.72C497.26 225.94 496.08 226.43 495 225.81Z" />
				<path id="&lt;Path&gt;" class="shp10" d="M532.53 291.21L513.04 279.96C511.95 279.33 511.37 277.83 511.74 276.6C512.11 275.37 513.28 274.88 514.37 275.5L533.85 286.76C534.94 287.38 535.52 288.89 535.15 290.11C534.78 291.34 533.61 291.83 532.53 291.21Z" />
				<path id="&lt;Path&gt;" class="shp10" d="M486.82 242.95L482.14 240.25C481.05 239.62 480.47 238.12 480.84 236.89C481.21 235.66 482.38 235.17 483.46 235.8L488.15 238.5C489.23 239.13 489.81 240.63 489.45 241.86C489.08 243.09 487.9 243.58 486.82 242.95Z" />
				<path id="&lt;Path&gt;" class="shp10" d="M482.39 262.26L476.57 258.9C475.49 258.28 474.91 256.77 475.27 255.54L475.27 255.54C475.64 254.31 476.82 253.83 477.9 254.45L483.72 257.81C484.8 258.43 485.38 259.94 485.01 261.17C484.65 262.4 483.47 262.89 482.39 262.26Z" />
				<path id="&lt;Path&gt;" class="shp10" d="M505.01 275.32L489.68 266.47C488.6 265.85 488.02 264.34 488.38 263.11C488.75 261.88 489.92 261.39 491.01 262.02L506.34 270.87C507.43 271.5 508.01 273 507.64 274.23C507.27 275.46 506.1 275.95 505.01 275.32Z" />
				<path id="&lt;Path&gt;" class="shp10" d="M484.81 274.59L473.79 268.23C472.71 267.6 472.12 266.1 472.49 264.87C472.86 263.64 474.03 263.15 475.12 263.78L486.14 270.14C487.23 270.77 487.81 272.27 487.44 273.5C487.07 274.73 485.9 275.22 484.81 274.59Z" />
				<path id="&lt;Path&gt;" class="shp10" d="M549.24 300.91L542.16 296.82C541.08 296.19 540.5 294.69 540.87 293.46C541.23 292.23 542.41 291.74 543.49 292.37L550.57 296.46C551.66 297.08 552.24 298.59 551.87 299.81C551.5 301.04 550.33 301.53 549.24 300.91Z" />
				<path id="&lt;Path&gt;" class="shp10" d="M522.14 241.48L502.65 230.23C501.57 229.6 500.99 228.1 501.35 226.87C501.72 225.64 502.89 225.15 503.98 225.78L523.47 237.03C524.55 237.65 525.13 239.16 524.76 240.39C524.4 241.61 523.22 242.1 522.14 241.48Z" />
			</g>
			<path id="&lt;Path&gt;" class="shp20" d="M524.45 231.88L490.48 212.27C489.4 211.64 488.82 210.14 489.19 208.91C489.55 207.68 490.73 207.19 491.81 207.82L525.78 227.43C526.86 228.05 527.44 229.56 527.07 230.79C526.71 232.01 525.53 232.5 524.45 231.88Z" />
			<path id="&lt;Path&gt;" class="shp20" d="M504.41 242.17L484.92 230.92C483.84 230.3 483.25 228.79 483.62 227.56C483.99 226.33 485.16 225.85 486.25 226.47L505.73 237.72C506.82 238.35 507.4 239.85 507.03 241.08C506.67 242.31 505.49 242.8 504.41 242.17Z" />
			<path id="&lt;Path&gt;" class="shp20" d="M536.92 250.01L529.84 245.92C528.75 245.3 528.17 243.79 528.54 242.57C528.91 241.34 530.08 240.85 531.17 241.47L538.25 245.56C539.33 246.19 539.91 247.69 539.54 248.92C539.18 250.15 538 250.64 536.92 250.01Z" />
			<path id="&lt;Path&gt;" class="shp20" d="M608.94 247.86L567.01 223.65C565.93 223.03 565.35 221.52 565.71 220.29C566.08 219.07 567.26 218.58 568.34 219.2L610.27 243.41C611.35 244.04 611.93 245.54 611.57 246.77C611.2 248 610.02 248.49 608.94 247.86Z" />
			<path id="&lt;Path&gt;" class="shp21" d="M502.78 263.1L479.35 249.58C478.27 248.95 477.69 247.45 478.06 246.22C478.42 244.99 479.6 244.5 480.68 245.12L504.11 258.65C505.19 259.27 505.77 260.78 505.41 262.01C505.04 263.24 503.86 263.73 502.78 263.1Z" />
			<path id="&lt;Path&gt;" class="shp21" d="M506.31 188.61L489.09 178.67C488.01 178.04 487.43 176.54 487.79 175.31C488.16 174.08 489.33 173.59 490.42 174.21L507.64 184.16C508.72 184.78 509.3 186.29 508.94 187.52C508.57 188.74 507.4 189.23 506.31 188.61Z" />
			<path id="&lt;Path&gt;" class="shp20" d="M481.21 283.45L461.27 271.93C460.18 271.31 459.6 269.8 459.97 268.57C460.34 267.34 461.51 266.86 462.59 267.48L482.54 279C483.62 279.62 484.21 281.13 483.84 282.36C483.47 283.58 482.3 284.07 481.21 283.45Z" />
		</g>
		<g id="&lt;Group&gt;">
			<path id="&lt;Path&gt;" class="shp10" d="M613.65 226.3L605.11 221.37C604.32 220.91 603.89 219.81 604.16 218.91C604.43 218.01 605.29 217.66 606.08 218.11L614.62 223.04C615.41 223.5 615.83 224.6 615.57 225.5C615.3 226.4 614.44 226.75 613.65 226.3Z" />
			<path id="&lt;Path&gt;" class="shp10" d="M629.93 235.7L621.39 230.77C620.6 230.31 620.18 229.21 620.45 228.32C620.71 227.42 621.57 227.06 622.37 227.52L630.9 232.45C631.69 232.9 632.12 234 631.85 234.9C631.58 235.8 630.72 236.16 629.93 235.7Z" />
			<path id="&lt;Path&gt;" class="shp10" d="M646.22 245.1L637.68 240.17C636.89 239.71 636.46 238.62 636.73 237.72C637 236.82 637.86 236.46 638.65 236.92L647.19 241.85C647.98 242.3 648.4 243.4 648.14 244.3C647.87 245.2 647.01 245.56 646.22 245.1Z" />
			<path id="&lt;Path&gt;" class="shp21" d="M654.22 249.73L653.96 249.57C653.17 249.12 652.75 248.02 653.01 247.12C653.28 246.22 654.14 245.86 654.93 246.32L655.19 246.47C655.98 246.93 656.41 248.03 656.14 248.93C655.87 249.83 655.01 250.19 654.22 249.73Z" />
		</g>
		<path id="&lt;Compound Path&gt;" fill-rule="evenodd" class="shp22" d="M213.59 349.64C208.19 349.64 202.79 348.25 197.97 345.46L140.78 312.44C138.3 311.01 136.82 308.45 136.82 305.59C136.82 302.72 138.3 300.16 140.78 298.73L197.97 265.71C207.6 260.15 219.58 260.14 229.22 265.71L286.41 298.73C288.89 300.16 290.37 302.73 290.37 305.59C290.37 308.45 288.89 311.01 286.41 312.45L229.22 345.46C224.4 348.25 219 349.64 213.59 349.64ZM199.83 342.24C208.32 347.14 218.87 347.14 227.36 342.24L284.55 309.22C285.86 308.46 286.65 307.11 286.65 305.59C286.65 304.07 285.86 302.71 284.55 301.95L227.36 268.93C218.86 264.03 208.32 264.03 199.83 268.93L142.64 301.95C141.33 302.71 140.54 304.07 140.54 305.59C140.54 307.1 141.33 308.46 142.64 309.22L199.83 342.24Z" />
		<g id="&lt;Group&gt;">
			<path id="&lt;Path&gt;" class="shp5" d="M241.08 322.4C225.74 331.26 200.87 331.26 185.53 322.4C170.19 313.54 170.19 299.18 185.53 290.33C200.87 281.47 225.74 281.47 241.08 290.33C256.42 299.19 256.42 313.54 241.08 322.4Z" />
			<path id="&lt;Path&gt;" class="shp23" d="M261.13 265.86C261.13 272.59 256.68 279.32 247.79 284.45C230.01 294.72 201.18 294.72 183.39 284.45C174.5 279.32 170.06 272.59 170.06 265.86L159.65 144.73L271.53 144.73L261.13 265.86Z" />
			<path id="&lt;Path&gt;" class="shp24" d="M269.47 168.71L261.13 265.86C261.13 272.59 256.68 279.32 247.79 284.45C240.2 288.84 230.6 291.33 220.71 291.97C234.13 289.13 241.11 284.12 244.74 279.85C247.24 276.9 248.57 273.15 248.74 269.29L252.46 180.69C228.39 190.9 193.11 188.17 171.73 173.98C167.38 171.09 163.93 167.94 161.36 164.66L159.65 144.73L271.53 144.73L269.47 168.71Z" />
			<path id="&lt;Path&gt;" class="shp19" d="M255.15 167.57C233.3 180.18 197.88 180.18 176.04 167.56C154.19 154.95 154.19 134.5 176.03 121.89C197.88 109.27 233.3 109.28 255.15 121.89C277 134.5 277 154.95 255.15 167.57Z" />
			<path id="&lt;Path&gt;" class="shp19" d="M249.66 153.01C230.85 163.88 200.34 163.88 181.52 153.01C162.7 142.15 162.7 124.53 181.52 113.67C200.34 102.81 230.85 102.81 249.66 113.67C268.48 124.54 268.48 142.15 249.66 153.01Z" />
			<path id="&lt;Path&gt;" class="shp25" d="M257.54 168.92C234.37 182.3 196.81 182.3 173.65 168.92C161.48 161.9 155.72 152.58 156.33 143.38L156.32 143.39L156.34 143.23C156.35 142.98 156.39 142.73 156.42 142.47L157.44 132.82L157.45 132.85C157.68 124.43 163.34 116.04 174.47 109.62C197.18 96.51 234 96.51 256.72 109.62C267.57 115.89 273.23 124.02 273.71 132.22L273.75 132.1L274.83 142.95C274.83 143 274.84 143.06 274.84 143.11L274.85 143.21L274.85 143.2C275.55 152.46 269.78 161.85 257.54 168.92Z" />
			<path id="&lt;Path&gt;" class="shp26" d="M249.66 153.01C230.85 163.88 200.34 163.88 181.52 153.01C162.7 142.15 162.7 124.53 181.52 113.67C200.34 102.81 230.85 102.81 249.66 113.67C268.48 124.54 268.48 142.15 249.66 153.01Z" />
			<path id="&lt;Path&gt;" class="shp27" d="M247.38 153.01C228.56 163.88 198.05 163.88 179.23 153.01C160.42 142.15 160.42 124.53 179.23 113.67C198.05 102.81 228.56 102.81 247.38 113.67C266.19 124.54 266.19 142.15 247.38 153.01Z" />
			<path id="&lt;Path&gt;" class="shp28" d="M180.85 152.58C162.74 141.69 162.94 124.4 181.52 113.67C200.34 102.81 230.85 102.81 249.66 113.67C252.12 115.09 254.24 116.63 256.05 118.25C255.82 118.11 255.62 117.95 255.38 117.82C236.56 106.95 206.05 106.95 187.24 117.81C170.88 127.26 168.76 141.8 180.85 152.58Z" />
			<path id="&lt;Path&gt;" class="shp29" d="M167.6 135.76C166.41 127.85 171.05 119.72 181.52 113.67C200.34 102.81 230.85 102.81 249.66 113.67C260.14 119.72 264.77 127.86 263.59 135.76C262.64 129.46 258.01 123.32 249.66 118.5C230.85 107.64 200.34 107.63 181.52 118.5C173.18 123.32 168.54 129.46 167.6 135.76Z" />
			<path id="&lt;Compound Path&gt;" fill-rule="evenodd" class="shp30" d="M256.66 157.54C233.75 170.5 196.79 170.17 174.11 156.81C151.42 143.45 151.61 122.11 174.52 109.15C197.44 96.19 234.4 96.51 257.08 109.87C279.76 123.24 279.57 144.58 256.66 157.54ZM249.66 113.67C230.85 102.81 200.34 102.81 181.52 113.67C162.7 124.53 162.7 142.15 181.52 153.01C187.81 156.64 195.41 159.03 203.43 160.23L204.3 157.36C204.66 156.2 205.73 155.41 206.94 155.41L224.24 155.41C225.46 155.41 226.53 156.2 226.88 157.36L227.75 160.23C235.78 159.03 243.38 156.64 249.66 153.01C268.48 142.15 268.48 124.54 249.66 113.67Z" />
			<g id="&lt;Group&gt;">
				<path id="&lt;Path&gt;" class="shp10" d="M263.73 132.31C263.3 125.54 258.62 118.84 249.66 113.67C230.85 102.81 200.34 102.81 181.52 113.67C172.57 118.84 167.88 125.54 167.45 132.31C166.97 124.85 171.66 117.3 181.52 111.61C200.34 100.75 230.85 100.75 249.66 111.61C259.53 117.31 264.21 124.85 263.73 132.31Z" />
				<path id="&lt;Path&gt;" class="shp10" d="M273.93 132.61C274.42 141.65 268.67 150.74 256.66 157.54C233.75 170.5 196.79 170.17 174.11 156.81C162.41 149.92 156.81 140.91 157.26 132.02C157.71 140.23 163.31 148.39 174.11 154.75C196.79 168.11 233.75 168.44 256.66 155.48C267.76 149.2 273.5 140.96 273.93 132.61Z" />
			</g>
			<path id="&lt;Path&gt;" class="shp31" d="M220.76 161.73L210.42 161.73C209.7 161.73 209.11 161.15 209.11 160.42L209.11 160.24C209.11 159.52 209.7 158.94 210.42 158.94L220.76 158.94C221.48 158.94 222.07 159.52 222.07 160.24L222.07 160.42C222.07 161.15 221.48 161.73 220.76 161.73Z" />
			<path id="&lt;Path&gt;" class="shp32" d="M222.07 160.24L222.07 160.43C222.07 160.55 222.03 160.66 222 160.77C221.84 160.22 221.36 159.81 220.76 159.81L210.42 159.81C209.82 159.81 209.34 160.22 209.18 160.77C209.15 160.66 209.11 160.55 209.11 160.43L209.11 160.24C209.11 159.52 209.7 158.94 210.42 158.94L220.76 158.94C221.48 158.94 222.07 159.52 222.07 160.24Z" />
			<g id="&lt;Group&gt;">
			</g>
		</g>
		<path id="&lt;Path&gt;" class="shp33" d="M212.37 160.33C222.01 156.02 226.89 147.89 227.03 135.96C227.2 120.9 224.01 124.52 209.46 93.03C199.76 72.03 200.1 53.78 210.48 38.26C200.55 67.01 225.21 77.97 237.87 113.91C246.31 137.87 240.11 153.35 219.26 160.33L212.37 160.33Z" />
		<path id="&lt;Path&gt;" class="shp34" d="M222.07 43.26C219.9 28.93 225.54 14.54 238.98 0.09C227.09 26.65 223.09 46.48 226.98 59.59C223.83 51.26 222.2 45.82 222.07 43.26Z" />
	</g>
	<g id="&lt;Group&gt;">
		<path id="&lt;Compound Path&gt;" fill-rule="evenodd" class="shp35" d="M503.32 162.03C503.14 162.44 502.95 162.86 502.73 163.25C499.63 168.93 492.78 171.33 486.8 168.85C483.58 167.51 481.12 164.98 479.86 161.73C479.44 160.65 479.18 159.54 479.06 158.41C477.79 157.86 476.7 157.32 475.79 156.78C473.18 155.26 472.03 153.82 472.36 152.48C472.88 150.31 477.01 150.03 481.04 150.3C482.18 148.53 483.72 147.12 485.48 146.14C488.49 144.46 492.15 144.02 495.62 145.18C497.01 145.64 498.29 146.33 499.43 147.21C499.82 147.52 499.89 148.09 499.59 148.49C499.27 148.88 498.7 148.95 498.31 148.65C497.33 147.89 496.24 147.3 495.05 146.9C492.59 146.08 490.02 146.2 487.75 147.08C485.96 147.77 484.36 148.93 483.14 150.48C485.23 150.71 487.1 151.02 488.2 151.22C488.49 151.28 488.74 151.47 488.86 151.75C488.98 152.02 488.96 152.34 488.8 152.59C488.79 152.62 487.45 154.8 486.41 157.2C485.01 160.41 485.01 162.01 485.44 162.41C485.49 162.45 486.61 163.38 492.42 159.49C493.12 159.02 493.81 158.54 494.46 158.06C495.86 157.04 497.06 156.09 497.78 155.5C497.68 155.46 497.59 155.42 497.52 155.38C497.42 155.33 496.55 154.82 496.4 153.73C496.27 152.76 496.76 151.73 497.86 150.66C499.76 148.83 501.75 148.43 502.98 148.66C503.75 148.82 504.31 149.21 504.57 149.79C504.82 150.34 504.75 150.97 504.35 151.7C503.98 152.4 503.29 153.2 502.29 154.14C502.26 154.16 502.24 154.18 502.22 154.2C503.47 154.42 504.12 155.49 504.25 156.27C504.26 156.3 504.26 156.34 504.26 156.37C504.39 158.31 504.07 160.21 503.32 162.03ZM479.02 156.4C479.06 155.78 479.15 155.17 479.28 154.56C479.46 153.71 479.73 152.88 480.09 152.06C479.27 152.03 478.51 152.02 477.81 152.04C474.9 152.15 474.16 152.76 474.12 152.91C474.09 153.07 474.4 153.7 475.85 154.68C476.58 155.17 477.61 155.75 479.02 156.4ZM499.58 154.08C500.94 152.99 502.09 151.84 502.61 151.1C502.77 150.87 502.87 150.67 502.89 150.53C502.86 150.52 502.84 150.5 502.81 150.49C502.33 150.29 500.78 150.37 499.13 151.97C498.2 152.87 498.18 153.36 498.2 153.49C498.22 153.67 498.39 153.78 498.39 153.79C498.61 153.91 499.06 154.01 499.58 154.08ZM501.64 161.33C502.28 159.8 502.55 158.19 502.45 156.55C502.38 156.27 502.19 155.95 501.67 155.99C501.31 156.01 500.74 156.01 500.13 155.96C499.87 156.15 499.7 156.28 499.63 156.33C499.39 156.54 497.67 157.97 495.46 159.58C494.82 160.05 494.14 160.53 493.43 161C488.61 164.23 485.68 165.1 484.21 163.75C482.94 162.58 483.12 160.19 484.75 156.45C485.37 155.02 486.08 153.69 486.59 152.79C484.99 152.52 483.46 152.32 482.04 152.19C481.98 152.31 481.92 152.44 481.86 152.56C481.54 153.24 481.3 153.94 481.12 154.65C480.61 156.77 480.75 158.99 481.56 161.07C482.63 163.86 484.74 166.02 487.5 167.17C492.62 169.3 498.48 167.24 501.14 162.38C501.32 162.04 501.49 161.69 501.64 161.33Z" />
		<path id="&lt;Path&gt;" class="shp36" d="M479.06 158.41C477.79 157.86 476.7 157.32 475.79 156.78C475.7 155.97 475.63 155.05 475.73 154.89C475.76 154.83 475.81 154.76 475.85 154.68C476.58 155.17 477.61 155.75 479.02 156.4C479 157.34 479.01 158.01 479.06 158.41Z" />
		<path id="&lt;Path&gt;" class="shp37" d="M481.12 154.65L479.28 154.56C479.46 153.71 479.73 152.88 480.09 152.06C481.07 152.12 481.72 152.16 482.04 152.19C481.98 152.31 481.92 152.44 481.86 152.56C481.54 153.24 481.3 153.94 481.12 154.65Z" />
		<path id="&lt;Path&gt;" class="shp38" d="M487.75 147.08C485.96 147.77 484.36 148.93 483.14 150.48C482.84 150.45 482.14 150.39 481.04 150.3C482.18 148.53 483.72 147.12 485.48 146.14L487.75 147.08Z" />
		<path id="&lt;Path&gt;" class="shp39" d="M500.13 155.96C499.87 156.15 499.7 156.28 499.63 156.33C499.39 156.54 497.67 157.97 495.46 159.58C495.17 159.14 494.8 158.59 494.46 158.06C495.86 157.04 497.06 156.09 497.78 155.5C498.45 155.72 499.24 155.87 500.13 155.96Z" />
		<path id="&lt;Path&gt;" class="shp40" d="M504.35 151.7C503.98 152.4 503.29 153.2 502.29 154.14C502.26 154.16 502.24 154.18 502.22 154.2C501.8 154.29 500.92 154.25 499.58 154.08C500.94 152.99 502.09 151.84 502.61 151.1C502.86 151.12 503.11 151.15 503.36 151.2L504.35 151.7Z" />
	</g>
</svg>