<svg version="1.2" baseProfile="tiny-ps" xmlns="http://www.w3.org/2000/svg" viewBox="0 0 524 459" width="524" height="459">
	<title>voltis-logo-no-text</title>
	<defs>
		<linearGradient id="grd1" gradientUnits="userSpaceOnUse"  x1="10.577" y1="40.749" x2="471.91" y2="40.749">
			<stop offset="0" stop-color="#acb6e5"  />
			<stop offset="1" stop-color="#acb6e5"  />
		</linearGradient>
		<linearGradient id="grd2" gradientUnits="userSpaceOnUse"  x1="120.339" y1="322.144" x2="85.308" y2="325.126">
			<stop offset="0" stop-color="#7c84a6"  />
			<stop offset="0.99" stop-color="#7c84a6" stop-opacity="0" />
		</linearGradient>
		<linearGradient id="grd3" gradientUnits="userSpaceOnUse"  x1="140.628" y1="218.247" x2="147.391" y2="241.833">
			<stop offset="0" stop-color="#7c84a6"  />
			<stop offset="1" stop-color="#7c84a6" stop-opacity="0" />
		</linearGradient>
		<linearGradient id="grd4" gradientUnits="userSpaceOnUse"  x1="102.611" y1="189.962" x2="92.486" y2="138.587">
			<stop offset="0" stop-color="#7c84a6"  />
			<stop offset="1" stop-color="#7c84a6" stop-opacity="0" />
		</linearGradient>
		<linearGradient id="grd5" gradientUnits="userSpaceOnUse"  x1="396.282" y1="180.04" x2="366.282" y2="232.29">
			<stop offset="0" stop-color="#7c84a6"  />
			<stop offset="1" stop-color="#7c84a6" stop-opacity="0" />
		</linearGradient>
		<linearGradient id="grd6" gradientUnits="userSpaceOnUse"  x1="376.261" y1="130.374" x2="390.261" y2="88.124">
			<stop offset="0" stop-color="#7c84a6"  />
			<stop offset="1" stop-color="#7c84a6" stop-opacity="0" />
		</linearGradient>
	</defs>
	<style>
		tspan { white-space:pre }
		.shp0 { fill: #424348 } 
		.shp1 { fill: url(#grd1) } 
		.shp2 { fill: url(#grd2) } 
		.shp3 { fill: url(#grd3) } 
		.shp4 { fill: url(#grd4) } 
		.shp5 { fill: url(#grd5) } 
		.shp6 { fill: url(#grd6) } 
	</style>
	<g id="BACKGROUND">
		<path id="Shape 3" class="shp0" d="M292.5 452.74C165.59 452.74 63 352.22 63 227.87C63 103.52 165.59 3 292.5 3C419.41 3 522 103.52 522 227.87C522 352.22 419.41 452.74 292.5 452.74Z" />
	</g>
	<g id="OBJECTS">
		<g id="&lt;Group&gt;">
			<path id="&lt;Compound Path&gt;" fill-rule="evenodd" class="shp1" d="M471.91 229.19C471.91 235.73 471.58 242.3 470.89 248.78C460.96 341.63 382.96 411.65 289.48 411.65C239.14 411.65 192.28 391.58 157.51 355.19C145.96 343.1 136.27 329.72 128.56 315.41C108.58 315.08 91.03 313.88 75.88 311.81C32.68 305.93 9.34 293.12 6.28 273.47C1.3 241.64 54.7 215 109.96 196.22C115.39 166.37 128.08 139.04 146.11 116.15C176.86 77.15 223.24 51.02 276.01 47.21C297.07 45.71 317.89 47.75 337.96 53.24C344.95 55.19 349.06 62.39 347.14 69.38C345.19 76.4 337.96 80.48 331 78.56C313.81 73.85 295.96 72.11 277.87 73.4C240.52 76.1 206.89 91.88 181.51 116.15C161.5 135.26 146.65 159.65 139 187.04C168.04 178.49 194.8 172.31 210.46 168.95C214.69 168.05 219.1 169.28 222.25 172.25C225.4 175.25 226.87 179.57 226.18 183.86C226.12 184.22 220.39 220.79 219.73 258.5C218.86 309.11 227.8 330.41 235.72 333.32C236.56 333.62 256.69 339.74 312.58 255.77C319.33 245.63 325.81 235.34 331.81 225.47C344.83 204.08 355.57 184.67 361.9 172.94C360.43 172.94 359.02 172.88 357.73 172.73C356.17 172.58 341.71 170.66 333.67 156.92C326.56 144.74 327.4 128.27 336.19 107.93C351.34 72.95 375.67 56.57 393.37 52.94C404.44 50.69 414.16 52.85 420.76 59.12C427.18 65.15 429.79 73.82 428.53 85.82C427.36 97.25 422.71 111.71 414.46 129.77C414.28 130.19 414.1 130.58 413.89 130.97C431.8 126.92 446.35 137.66 452.47 147.29C452.71 147.68 452.95 148.1 453.16 148.52C465.61 173.72 471.91 200.87 471.91 229.19ZM116.89 288.83C113.98 280.34 111.7 271.64 110.05 262.76C107.8 250.46 106.78 237.86 107.05 225.05C95.92 229.1 85.72 233.24 76.6 237.41C38.35 254.93 31.87 267.11 32.23 269.42C32.59 271.76 40.3 278.42 65.02 283.37C77.53 285.89 94.39 287.96 116.89 288.83ZM378.1 143.9C390.1 121.88 399.19 100.22 401.89 87.44C402.73 83.45 402.97 80.33 402.46 78.32C402.1 78.26 401.71 78.2 401.23 78.2C393.73 78.2 373.51 87.86 360.31 118.37C352.9 135.47 355.39 142.07 356.35 143.69C357.7 145.97 360.52 146.63 360.55 146.63C364.12 147.02 370.75 145.85 378.1 143.9ZM445.66 229.19C445.66 205.25 440.41 182.3 430 160.97C427.57 157.64 423.22 154.43 416.53 157.79C411.82 160.13 404.2 163.22 395.74 166.01C393.46 169.97 391.84 172.67 391.21 173.72C389.11 177.8 374.2 206.45 353.65 240.08C347.65 249.89 341.2 260.12 334.42 270.29C288.07 340.01 253.84 367.88 226.75 357.98C203.29 349.43 192.43 316.67 193.48 257.78C193.9 235.22 195.97 213.5 197.71 198.71C174.91 204.02 153.37 209.87 133.81 215.99C133.66 217.91 133.54 219.86 133.45 221.81C132.94 232.67 133.54 243.41 135.19 253.85C140.08 284.96 154.24 313.73 176.5 337.04C206.26 368.21 246.37 385.4 289.48 385.4C369.52 385.4 436.27 325.46 444.76 245.99C445.36 240.44 445.66 234.8 445.66 229.19Z" />
			<path id="&lt;Path&gt;" class="shp2" d="M128.56 315.41C108.58 315.08 91.03 313.88 75.88 311.81C70.24 301.46 64.15 289.64 64.57 286.97C64.72 285.92 64.87 284.69 65.02 283.37C77.53 285.89 94.39 287.96 116.89 288.83C121.73 301.41 125.62 310.27 128.56 315.41Z" />
			<path id="&lt;Path&gt;" class="shp3" d="M135.19 253.85L110.05 262.76C107.8 250.46 106.78 237.86 107.05 225.05C120.49 220.37 129.41 217.35 133.81 215.99C133.66 217.91 133.54 219.86 133.45 221.81C132.94 232.67 133.54 243.41 135.19 253.85Z" />
			<path id="&lt;Path&gt;" class="shp4" d="M181.51 116.15C161.5 135.26 146.65 159.65 139 187.04C134.76 188.28 125.08 191.34 109.96 196.22C115.39 166.37 128.08 139.04 146.11 116.15L181.51 116.15Z" />
			<path id="&lt;Path&gt;" class="shp5" d="M395.74 166.01C393.46 169.97 391.84 172.67 391.21 173.72C389.11 177.8 374.2 206.45 353.65 240.08C347.26 235.79 339.34 230.54 331.81 225.47C344.83 204.08 355.57 184.67 361.9 172.94C372.09 172.04 383.37 169.73 395.74 166.01Z" />
			<path id="&lt;Path&gt;" class="shp6" d="M428.53 85.82C427.36 97.25 422.71 111.71 414.46 129.77C414.28 130.19 414.1 130.58 413.89 130.97C408.81 134.51 396.88 138.82 378.1 143.9C390.1 121.88 399.19 100.22 401.89 87.44C405.41 86.26 408.95 85.33 412.51 84.65L428.53 85.82Z" />
		</g>
	</g>
</svg>